<svg width="56" height="56" viewBox="0 0 56 56" fill="none" xmlns="http://www.w3.org/2000/svg">
<g clip-path="url(#clip0_418_1115)">
<path d="M28 9.03882C17.5445 9.03882 9.03842 17.5449 9.03842 28.0004C9.03842 38.4559 17.5445 46.962 28 46.962C38.4555 46.962 46.9616 38.4559 46.9616 28.0004C46.9616 17.5449 38.4555 9.03882 28 9.03882ZM28 44.7745C18.7507 44.7745 11.2259 37.2497 11.2259 28.0004C11.2259 18.7511 18.7507 11.2263 28 11.2263C37.2493 11.2263 44.7741 18.7511 44.7741 28.0004C44.7741 37.2497 37.2492 44.7745 28 44.7745Z" fill="#086A41"/>
<path d="M54.5056 31.7604C55.206 30.6715 56 29.4373 56 28.0003C56 26.5634 55.206 25.3292 54.5056 24.2402C54.0367 23.5114 53.5939 22.823 53.4518 22.1988C53.3002 21.533 53.4016 20.6959 53.5089 19.8099C53.6693 18.4844 53.8354 17.1138 53.2318 15.8647C52.6177 14.5937 51.3756 13.8321 50.2797 13.1601C49.5287 12.6998 48.8194 12.2648 48.4069 11.7487C47.9899 11.2273 47.7206 10.4365 47.4356 9.59919C47.023 8.38743 46.5556 7.01412 45.4584 6.13933C44.367 5.26915 42.9263 5.11821 41.655 4.98499C40.7704 4.89235 39.9348 4.80485 39.3264 4.51173C38.7389 4.22866 38.1606 3.63946 37.5484 3.01569C36.6445 2.09454 35.6198 1.05044 34.23 0.734897C32.892 0.431272 31.5999 0.894803 30.3503 1.34335C29.5005 1.64818 28.6978 1.93627 28 1.93627C27.3022 1.93627 26.4995 1.64818 25.6497 1.34324C24.4002 0.894803 23.1082 0.431163 21.77 0.734788C20.3802 1.05023 19.3555 2.09432 18.4516 3.01558C17.8394 3.63935 17.2612 4.22855 16.6737 4.51162C16.0653 4.80463 15.2298 4.89213 14.3451 4.98488C13.0738 5.1181 11.633 5.26904 10.5417 6.13922C9.44453 7.01401 8.97695 8.38732 8.5645 9.59898C8.27947 10.4363 8.01019 11.2272 7.59325 11.7486C7.18069 12.2647 6.47128 12.6995 5.72031 13.16C4.62448 13.832 3.38242 14.5936 2.76828 15.8646C2.16475 17.1138 2.33067 18.4844 2.49112 19.8099C2.59842 20.6961 2.69981 21.533 2.54822 22.1988C2.40614 22.823 1.96328 23.5114 1.49439 24.2402C0.793953 25.3292 0 26.5634 0 28.0003C0 29.4373 0.793953 30.6715 1.49439 31.7603C1.96328 32.4893 2.40614 33.1777 2.54822 33.8019C2.69981 34.4677 2.59842 35.3046 2.49112 36.1908C2.33067 37.5163 2.16464 38.8869 2.76817 40.1359C3.38231 41.407 4.62437 42.1687 5.72031 42.8405C6.47128 43.301 7.18058 43.7359 7.59314 44.2519C8.01008 44.7733 8.27936 45.5642 8.56439 46.4015C8.97684 47.6132 9.44442 48.9865 10.5416 49.8613C11.633 50.7315 13.0738 50.8825 14.345 51.0157C15.2296 51.1083 16.0652 51.1958 16.6736 51.4889C17.2611 51.772 17.8394 52.3612 18.4516 52.985C19.3555 53.9061 20.3802 54.9502 21.77 55.2658C23.1083 55.5695 24.4002 55.106 25.6497 54.6573C26.4996 54.3524 27.3022 54.0643 28 54.0643C28.6978 54.0643 29.5005 54.3524 30.3503 54.6573C31.3208 55.0057 32.3168 55.3631 33.3403 55.3631C33.6346 55.3631 33.9312 55.3336 34.23 55.2658C35.6198 54.9503 36.6445 53.9062 37.5484 52.9851C38.1606 52.3612 38.7388 51.7721 39.3263 51.489C39.9347 51.1959 40.7703 51.1084 41.6549 51.0158C42.9262 50.8826 44.3669 50.7316 45.4583 49.8614C46.5555 48.9867 47.0229 47.6133 47.4355 46.4017C47.7205 45.5643 47.9898 44.7734 48.4067 44.252C48.8193 43.736 49.5287 43.3011 50.2797 42.8407C51.3755 42.1687 52.6176 41.4071 53.2317 40.136C53.8353 38.8869 53.6693 37.5163 53.5089 36.1908C53.4016 35.3046 53.3002 34.4677 53.4518 33.8019C53.5938 33.1777 54.0367 32.4893 54.5056 31.7604ZM52.6659 30.5769C52.1154 31.4326 51.5462 32.3175 51.3189 33.3163C51.0828 34.3529 51.2121 35.421 51.3372 36.4537C51.4654 37.5127 51.5865 38.5129 51.2621 39.1844C50.9271 39.8776 50.0572 40.411 49.1362 40.9757C48.258 41.5142 47.3499 42.071 46.6983 42.8857C46.0423 43.706 45.6979 44.7179 45.3647 45.6965C45.0183 46.7142 44.691 47.6754 44.0945 48.1509C43.5031 48.6226 42.4946 48.7281 41.427 48.84C40.3951 48.948 39.3282 49.0598 38.377 49.5181C37.4451 49.967 36.7038 50.7223 35.987 51.4527C35.2267 52.2274 34.5086 52.9592 33.7457 53.1324C33.0299 53.2946 32.0871 52.9565 31.089 52.5983C30.1004 52.2435 29.0782 51.8767 27.9998 51.8767C26.9213 51.8767 25.8991 52.2435 24.9106 52.5983C23.9124 52.9565 22.9696 53.2948 22.2539 53.1324C21.491 52.9592 20.7728 52.2274 20.0126 51.4527C19.2957 50.7223 18.5545 49.967 17.6226 49.5181C16.6714 49.0598 15.6044 48.9482 14.5726 48.84C13.5049 48.7282 12.4964 48.6224 11.905 48.1509C11.3086 47.6754 10.9814 46.7142 10.635 45.6965C10.3018 44.718 9.95728 43.706 9.30136 42.8857C8.64981 42.071 7.74178 41.5143 6.8635 40.9757C5.94245 40.411 5.07248 39.8777 4.73758 39.1844C4.41317 38.5129 4.53425 37.5127 4.66244 36.4537C4.78756 35.421 4.91684 34.3531 4.68081 33.3163C4.45342 32.3175 3.88423 31.4325 3.33375 30.5768C2.74444 29.6603 2.1875 28.7944 2.1875 28.0003C2.1875 27.2062 2.74444 26.3403 3.33408 25.4237C3.88456 24.5679 4.45375 23.6831 4.68114 22.6843C4.91717 21.6475 4.78789 20.5796 4.66277 19.5468C4.53458 18.4879 4.4135 17.4876 4.73791 16.8162C5.07292 16.123 5.94278 15.5896 6.86383 15.0248C7.742 14.4864 8.65014 13.9296 9.30169 13.1148C9.95761 12.2946 10.3021 11.2826 10.6353 10.304C10.9818 9.28638 11.309 8.32519 11.9055 7.84963C12.497 7.37801 13.5054 7.27246 14.5731 7.16057C15.605 7.05251 16.6718 6.94072 17.6232 6.48255C18.555 6.03368 19.2962 5.27833 20.013 4.54793C20.7733 3.77322 21.4914 3.04151 22.2543 2.86826C22.9698 2.70594 23.9129 3.04413 24.911 3.40233C25.8993 3.75693 26.9216 4.12377 28 4.12377C29.0784 4.12377 30.1007 3.75693 31.0892 3.40212C32.0873 3.04402 33.0299 2.70572 33.7459 2.86804C34.5088 3.04118 35.227 3.77301 35.9872 4.54771C36.7041 5.27812 37.4453 6.03346 38.3772 6.48233C39.3284 6.94051 40.3954 7.05229 41.4272 7.16046C42.4949 7.27235 43.5034 7.37801 44.0949 7.84952C44.6913 8.32508 45.0185 9.28627 45.3649 10.304C45.6981 11.2826 46.0426 12.2945 46.6985 13.1148C47.3501 13.9296 48.2581 14.4864 49.1364 15.0248C50.0574 15.5896 50.9274 16.1229 51.2623 16.8162C51.5867 17.4876 51.4656 18.4879 51.3375 19.5468C51.2123 20.5796 51.083 21.6476 51.3191 22.6843C51.5465 23.6831 52.1157 24.5679 52.6661 25.4237C53.2556 26.3403 53.8125 27.2062 53.8125 28.0003C53.8125 28.7944 53.2556 29.6603 52.6659 30.5769Z" fill="#086A41"/>
<path d="M28 35.398L21.7479 37.6212L21.9303 30.9881L17.884 25.7292L24.2488 23.853L28 18.3794L31.7512 23.853L38.116 25.7292L34.0696 30.9881L34.2521 37.6212L28 35.398Z" fill="#C6F6E2"/>
</g>
<defs>
<clipPath id="clip0_418_1115">
<rect width="56" height="56" fill="white" transform="translate(0 0.000244141)"/>
</clipPath>
</defs>
</svg>
