<svg width="20" height="21" viewBox="0 0 20 21" fill="none" xmlns="http://www.w3.org/2000/svg">
<path d="M7.50002 5.49999H11.6667M7.50002 5.49999V7.58332H11.6667V5.49999M7.50002 5.49999V4.24999C7.50002 2.99999 8.75002 2.16666 10 2.16666H14.5834C14.5834 2.16666 11.6667 2.99999 11.6667 4.66666V5.49999M5.41669 8.41666C5.41669 8.19564 5.50448 7.98368 5.66076 7.8274C5.81705 7.67112 6.02901 7.58332 6.25002 7.58332H12.9167C13.1377 7.58332 13.3497 7.67112 13.5059 7.8274C13.6622 7.98368 13.75 8.19564 13.75 8.41666V16.3333C13.75 16.3333 13.75 18.8333 11.25 18.8333H7.91669C5.41669 18.8333 5.41669 16.3333 5.41669 16.3333V8.41666Z" stroke="#8F8F8F" stroke-width="1.5" stroke-linecap="round" stroke-linejoin="round"/>
</svg>
