<svg width="20" height="21" viewBox="0 0 20 21" fill="none" xmlns="http://www.w3.org/2000/svg">
<path d="M5.31034 9.96667V8.99195C5.31034 7.46841 6.54542 6.23333 8.06897 6.23333V6.23333M5.31034 9.96667H4C2.89543 9.96667 2 10.8621 2 11.9667V15.9C2 16.4523 2.44772 16.9 3 16.9H5.31034M5.31034 9.96667V15.3M5.31034 16.9V16.9C5.31034 17.7837 6.02669 18.5 6.91034 18.5H13.0897C13.9733 18.5 14.6897 17.7837 14.6897 16.9V16.9M5.31034 16.9V15.3M14.6897 9.96667V8.99195C14.6897 7.46841 13.4546 6.23333 11.931 6.23333V6.23333M14.6897 9.96667H16C17.1046 9.96667 18 10.8621 18 11.9667V15.9C18 16.4523 17.5523 16.9 17 16.9H14.6897M14.6897 9.96667V15.3M14.6897 16.9V15.3M8.06897 6.23333V4.93103C8.06897 3.86455 8.93352 3 10 3V3C11.0665 3 11.931 3.86455 11.931 4.93103V6.23333M8.06897 6.23333H11.931M5.31034 15.3V15.3C5.63517 14.044 6.76829 13.1667 8.06559 13.1667H11.9344C13.2317 13.1667 14.3648 14.044 14.6897 15.3V15.3M8.62069 9.96667H10.2759H11.3793" stroke="#8F8F8F" stroke-width="1.5" stroke-linecap="round"/>
</svg>
