<svg width="24" height="25" viewBox="0 0 24 25" fill="none" xmlns="http://www.w3.org/2000/svg">
<path d="M12.75 3.5C12.5511 3.5 12.3603 3.57902 12.2197 3.71967C12.079 3.86032 12 4.05109 12 4.25C12 4.44891 12.079 4.63968 12.2197 4.78033C12.3603 4.92098 12.5511 5 12.75 5H14.177L15.132 8.5H8.5V6.25C8.5 6.05109 8.42098 5.86032 8.28033 5.71967C8.13968 5.57902 7.94891 5.5 7.75 5.5H4.75C4.55109 5.5 4.36032 5.57902 4.21967 5.71967C4.07902 5.86032 4 6.05109 4 6.25C4 6.44891 4.07902 6.63968 4.21967 6.78033C4.36032 6.92098 4.55109 7 4.75 7H7V9.188L6.698 11C5.85184 11.0104 5.02804 11.2731 4.33211 11.7545C3.63618 12.2359 3.09982 12.9142 2.79172 13.7023C2.48362 14.4905 2.41781 15.3526 2.60273 16.1784C2.78765 17.0042 3.21487 17.7559 3.82967 18.3374C4.44448 18.9189 5.21887 19.3036 6.05365 19.4422C6.88844 19.5809 7.74561 19.4672 8.51538 19.1157C9.28514 18.7642 9.93245 18.1909 10.3744 17.4692C10.8163 16.7476 11.0328 15.9104 10.996 15.065L15.652 10.408L15.926 11.411C14.9666 11.8664 14.2125 12.6646 13.8121 13.6482C13.4118 14.6319 13.3942 15.7298 13.7629 16.7257C14.1315 17.7217 14.8597 18.5435 15.8041 19.0294C16.7484 19.5154 17.8404 19.6301 18.8651 19.3511C19.8898 19.0721 20.7729 18.4195 21.3406 17.5219C21.9082 16.6243 22.1192 15.5468 21.932 14.5014C21.7449 13.456 21.1731 12.5185 20.3293 11.8737C19.4855 11.2288 18.4309 10.9232 17.373 11.017L15.473 4.053C15.4298 3.8943 15.3356 3.7542 15.205 3.65428C15.0743 3.55435 14.9145 3.50015 14.75 3.5H12.75ZM16.33 12.894L17.026 15.447C17.0519 15.5421 17.0962 15.6311 17.1565 15.7091C17.2168 15.787 17.2918 15.8523 17.3774 15.9012C17.4629 15.9502 17.5572 15.9818 17.6549 15.9943C17.7527 16.0068 17.8519 15.9999 17.947 15.974C18.0421 15.9481 18.1311 15.9038 18.2091 15.8435C18.287 15.7832 18.3523 15.7082 18.4012 15.6226C18.4502 15.5371 18.4818 15.4428 18.4943 15.3451C18.5068 15.2473 18.4999 15.1481 18.474 15.053L17.777 12.5C18.4407 12.5069 19.0796 12.7535 19.5757 13.1945C20.0718 13.6356 20.3916 14.2411 20.4762 14.8995C20.5608 15.5578 20.4044 16.2246 20.0358 16.7766C19.6673 17.3287 19.1116 17.7289 18.4711 17.9032C17.8306 18.0776 17.1487 18.0145 16.5512 17.7255C15.9536 17.4364 15.4808 16.941 15.2199 16.3307C14.959 15.7203 14.9277 15.0362 15.1317 14.4046C15.3358 13.7729 15.7614 13.2364 16.33 12.894ZM10.565 13.374C10.0756 12.3818 9.21965 11.6187 8.178 11.246L8.385 10H13.939L10.565 13.374ZM7.925 12.763C8.635 13.099 9.179 13.731 9.396 14.5H7.636L7.925 12.763ZM6.445 12.517L6.01 15.127C5.99214 15.2344 5.99789 15.3445 6.02686 15.4495C6.05582 15.5545 6.10731 15.6519 6.17773 15.735C6.24815 15.818 6.33583 15.8848 6.43465 15.9306C6.53348 15.9763 6.64109 16 6.75 16H9.396C9.2602 16.4801 8.99638 16.9143 8.63278 17.256C8.26918 17.5977 7.81949 17.834 7.33186 17.9398C6.84423 18.0455 6.33703 18.0167 5.86454 17.8563C5.39206 17.6959 4.9721 17.41 4.64962 17.0293C4.32714 16.6485 4.11428 16.1872 4.03384 15.6948C3.95339 15.2024 4.00839 14.6973 4.19295 14.2337C4.3775 13.7702 4.68466 13.3655 5.08154 13.0631C5.47842 12.7607 5.94907 12.5719 6.445 12.517Z" fill="#8F8F8F"/>
</svg>
