<svg width="16" height="16" viewBox="0 0 16 16" fill="none" xmlns="http://www.w3.org/2000/svg">
<rect width="16" height="16" rx="4" fill="#FE855A"/>
<path d="M8.93998 8L13.14 3.80667C13.2655 3.68113 13.336 3.51087 13.336 3.33333C13.336 3.1558 13.2655 2.98554 13.14 2.86C13.0144 2.73447 12.8442 2.66394 12.6666 2.66394C12.4891 2.66394 12.3188 2.73447 12.1933 2.86L7.99998 7.06L3.80665 2.86C3.68111 2.73447 3.51085 2.66394 3.33331 2.66394C3.15578 2.66394 2.98552 2.73447 2.85998 2.86C2.73444 2.98554 2.66392 3.1558 2.66392 3.33333C2.66392 3.51087 2.73444 3.68113 2.85998 3.80667L7.05998 8L2.85998 12.1933C2.79749 12.2553 2.7479 12.329 2.71405 12.4103C2.68021 12.4915 2.66278 12.5787 2.66278 12.6667C2.66278 12.7547 2.68021 12.8418 2.71405 12.9231C2.7479 13.0043 2.79749 13.078 2.85998 13.14C2.92195 13.2025 2.99569 13.2521 3.07693 13.2859C3.15817 13.3198 3.24531 13.3372 3.33331 13.3372C3.42132 13.3372 3.50846 13.3198 3.5897 13.2859C3.67094 13.2521 3.74467 13.2025 3.80665 13.14L7.99998 8.94L12.1933 13.14C12.2553 13.2025 12.329 13.2521 12.4103 13.2859C12.4915 13.3198 12.5786 13.3372 12.6666 13.3372C12.7547 13.3372 12.8418 13.3198 12.923 13.2859C13.0043 13.2521 13.078 13.2025 13.14 13.14C13.2025 13.078 13.2521 13.0043 13.2859 12.9231C13.3198 12.8418 13.3372 12.7547 13.3372 12.6667C13.3372 12.5787 13.3198 12.4915 13.2859 12.4103C13.2521 12.329 13.2025 12.2553 13.14 12.1933L8.93998 8Z" fill="white"/>
</svg>
