<svg width="38" height="38" viewBox="0 0 38 38" fill="none" xmlns="http://www.w3.org/2000/svg">
<path d="M22.8201 26.9765L28.0001 26.9765C28.2653 26.9765 28.5197 26.8711 28.7072 26.6836C28.8948 26.496 29.0001 26.2417 29.0001 25.9765C29.0001 25.7113 28.8948 25.4569 28.7072 25.2694C28.5197 25.0818 28.2653 24.9765 28.0001 24.9765L22.8201 24.9765C22.6099 24.3973 22.2265 23.8969 21.722 23.5433C21.2174 23.1897 20.6162 23 20.0001 23C19.384 23 18.7828 23.1897 18.2783 23.5433C17.7737 23.8969 17.3903 24.3973 17.1801 24.9765L10.0001 24.9765C9.7349 24.9765 9.48055 25.0818 9.29301 25.2694C9.10548 25.4569 9.00012 25.7113 9.00012 25.9765C9.00012 26.2417 9.10548 26.496 9.29301 26.6836C9.48055 26.8711 9.7349 26.9765 10.0001 26.9765L17.1801 26.9765C17.3903 27.5556 17.7737 28.056 18.2783 28.4096C18.7828 28.7633 19.384 28.953 20.0001 28.953C20.6162 28.953 21.2174 28.7633 21.722 28.4096C22.2265 28.056 22.6099 27.5556 22.8201 26.9765ZM19.0001 25.9765C19.0001 25.7787 19.0588 25.5854 19.1687 25.4209C19.2785 25.2565 19.4347 25.1283 19.6174 25.0526C19.8002 24.9769 20.0012 24.9571 20.1952 24.9957C20.3892 25.0343 20.5674 25.1295 20.7072 25.2694C20.8471 25.4092 20.9423 25.5874 20.9809 25.7814C21.0195 25.9754 20.9997 26.1764 20.924 26.3592C20.8483 26.5419 20.7201 26.6981 20.5557 26.8079C20.3912 26.9178 20.1979 26.9765 20.0001 26.9765C19.7349 26.9765 19.4806 26.8711 19.293 26.6836C19.1055 26.496 19.0001 26.2417 19.0001 25.9765ZM16.8201 19.9765L28.0001 19.9765C28.2653 19.9765 28.5197 19.8711 28.7072 19.6836C28.8948 19.496 29.0001 19.2417 29.0001 18.9765C29.0001 18.7113 28.8948 18.4569 28.7072 18.2694C28.5197 18.0818 28.2653 17.9765 28.0001 17.9765L16.8201 17.9765C16.6099 17.3973 16.2265 16.8969 15.722 16.5433C15.2174 16.1897 14.6162 16 14.0001 16C13.384 16 12.7828 16.1897 12.2783 16.5433C11.7738 16.8969 11.3903 17.3973 11.1801 17.9765L10.0001 17.9765C9.7349 17.9765 9.48055 18.0818 9.29301 18.2694C9.10548 18.4569 9.00012 18.7113 9.00012 18.9765C9.00012 19.2417 9.10548 19.496 9.29301 19.6836C9.48055 19.8711 9.7349 19.9765 10.0001 19.9765L11.1801 19.9765C11.3903 20.5556 11.7738 21.056 12.2783 21.4096C12.7828 21.7633 13.384 21.953 14.0001 21.953C14.6162 21.953 15.2174 21.7633 15.722 21.4096C16.2265 21.056 16.6099 20.5556 16.8201 19.9765ZM13.0001 18.9765C13.0001 18.7787 13.0588 18.5854 13.1687 18.4209C13.2785 18.2565 13.4347 18.1283 13.6174 18.0526C13.8002 17.9769 14.0012 17.9571 14.1952 17.9957C14.3892 18.0343 14.5674 18.1295 14.7072 18.2694C14.8471 18.4092 14.9423 18.5874 14.9809 18.7814C15.0195 18.9754 14.9997 19.1764 14.924 19.3592C14.8483 19.5419 14.7201 19.6981 14.5557 19.8079C14.3912 19.9178 14.1979 19.9765 14.0001 19.9765C13.7349 19.9765 13.4806 19.8711 13.293 19.6836C13.1055 19.496 13.0001 19.2417 13.0001 18.9765ZM24.8201 12.9765L28.0001 12.9765C28.2653 12.9765 28.5197 12.8711 28.7072 12.6836C28.8948 12.496 29.0001 12.2417 29.0001 11.9765C29.0001 11.7113 28.8948 11.4569 28.7072 11.2694C28.5197 11.0818 28.2653 10.9765 28.0001 10.9765L24.8201 10.9765C24.6099 10.3973 24.2265 9.89694 23.722 9.54332C23.2174 9.1897 22.6162 9 22.0001 9C21.384 9 20.7828 9.1897 20.2783 9.54332C19.7738 9.89694 19.3903 10.3973 19.1801 10.9765L10.0001 10.9765C9.73491 10.9765 9.48055 11.0818 9.29301 11.2694C9.10548 11.4569 9.00012 11.7113 9.00012 11.9765C9.00012 12.2417 9.10548 12.496 9.29301 12.6836C9.48055 12.8711 9.73491 12.9765 10.0001 12.9765L19.1801 12.9765C19.3903 13.5556 19.7738 14.056 20.2783 14.4096C20.7828 14.7633 21.384 14.953 22.0001 14.953C22.6162 14.953 23.2174 14.7633 23.722 14.4096C24.2265 14.056 24.6099 13.5556 24.8201 12.9765ZM21.0001 11.9765C21.0001 11.7787 21.0588 11.5854 21.1687 11.4209C21.2785 11.2565 21.4347 11.1283 21.6174 11.0526C21.8002 10.9769 22.0012 10.9571 22.1952 10.9957C22.3892 11.0343 22.5674 11.1295 22.7072 11.2694C22.8471 11.4092 22.9423 11.5874 22.9809 11.7814C23.0195 11.9754 22.9997 12.1764 22.924 12.3592C22.8483 12.5419 22.7201 12.6981 22.5557 12.8079C22.3912 12.9178 22.1979 12.9765 22.0001 12.9765C21.7349 12.9765 21.4806 12.8711 21.293 12.6836C21.1055 12.496 21.0001 12.2417 21.0001 11.9765Z" fill="#4E4E4E"/>
<circle cx="22.0001" cy="12" r="2" fill="#F93A3A"/>
</svg>
