<svg width="56" height="56" viewBox="0 0 56 56" fill="none" xmlns="http://www.w3.org/2000/svg">
<g clip-path="url(#clip0_418_1087)">
<path d="M51.3921 17.4639C51.5977 17.2587 51.7132 16.9803 51.7132 16.6899C51.7132 16.3995 51.5977 16.121 51.3921 15.9158L45.5673 10.1014C45.1403 9.67523 44.4488 9.67523 44.0218 10.1014L41.027 13.0908C38.3502 11.2994 35.3443 10.0884 32.1671 9.52309C33.1057 8.51093 33.6803 7.15742 33.6803 5.67232C33.6803 2.54474 31.1322 0.000244141 28 0.000244141C24.8678 0.000244141 22.3197 2.54474 22.3197 5.67232C22.3197 7.15731 22.8942 8.51093 23.8329 9.52309C20.6557 10.0884 17.6498 11.2994 14.973 13.0908L11.9782 10.1014C11.5512 9.67523 10.8597 9.67523 10.4327 10.1014L4.60786 15.9158C4.40234 16.121 4.28684 16.3995 4.28684 16.6899C4.28684 16.9803 4.40234 17.2587 4.60786 17.4639L7.79866 20.6491C5.67273 24.2228 4.53851 28.3137 4.53851 32.5786C4.53851 38.835 6.97911 44.717 11.4109 49.1409C15.8421 53.5642 21.7336 56.0002 28 56.0002C34.2664 56.0002 40.1579 53.5642 44.589 49.1409C49.0208 44.7171 51.4614 38.835 51.4614 32.5786C51.4614 28.3136 50.3272 24.2228 48.2012 20.649L51.3921 17.4639ZM44.7945 12.4209L49.0712 16.6899L46.9696 18.7878C46.2553 17.8131 45.4607 16.8865 44.589 16.0164C44.018 15.4464 43.4226 14.9094 42.8054 14.4064L44.7945 12.4209ZM28 2.18774C29.9259 2.18774 31.4928 3.75093 31.4928 5.67232C31.4928 7.21276 30.4855 8.52296 29.0937 8.9819V6.45424C29.0937 5.85028 28.6041 5.36049 28 5.36049C27.3959 5.36049 26.9062 5.85028 26.9062 6.45424V8.9819C25.5143 8.52296 24.5072 7.21276 24.5072 5.67232C24.5072 3.75093 26.0741 2.18774 28 2.18774ZM6.9288 16.6899L11.2055 12.4209L13.1946 14.4064C12.5774 14.9094 11.982 15.4463 11.411 16.0164C10.5393 16.8865 9.74466 17.8132 9.03044 18.7878L6.9288 16.6899ZM28 53.8127C16.2694 53.8127 6.72601 44.2872 6.72601 32.5786C6.72601 20.87 16.2694 11.3445 28 11.3445C39.7306 11.3445 49.274 20.8701 49.274 32.5787C49.274 44.2873 39.7305 53.8127 28 53.8127Z" fill="#086A41"/>
<path d="M28 49.2825C37.2418 49.2825 44.7337 41.8039 44.7337 32.5786C44.7337 23.3533 37.2418 15.8748 28 15.8748C18.7582 15.8748 11.2663 23.3533 11.2663 32.5786C11.2663 41.8039 18.7582 49.2825 28 49.2825Z" fill="#C6F6E2"/>
<path d="M28 21.4185C27.3959 21.4185 26.9062 20.9287 26.9062 20.3247V19.9517C26.9062 19.3476 27.3959 18.8579 28 18.8579C28.6041 18.8579 29.0938 19.3476 29.0938 19.9517V20.3247C29.0938 20.9288 28.6041 21.4185 28 21.4185Z" fill="#086A41"/>
<path d="M28 46.2993C27.3959 46.2993 26.9062 45.8096 26.9062 45.2056V44.8325C26.9062 44.2286 27.3959 43.7388 28 43.7388C28.6041 43.7388 29.0938 44.2286 29.0938 44.8325V45.2056C29.0938 45.8096 28.6041 46.2993 28 46.2993Z" fill="#086A41"/>
<path d="M40.6269 33.6724H40.2537C39.6496 33.6724 39.16 33.1826 39.16 32.5786C39.16 31.9746 39.6496 31.4849 40.2537 31.4849H40.6269C41.231 31.4849 41.7207 31.9746 41.7207 32.5786C41.7207 33.1827 41.231 33.6724 40.6269 33.6724Z" fill="#086A41"/>
<path d="M15.7462 33.6724H15.373C14.7689 33.6724 14.2792 33.1826 14.2792 32.5786C14.2792 31.9746 14.7689 31.4849 15.373 31.4849H15.7462C16.3503 31.4849 16.8399 31.9746 16.8399 32.5786C16.8399 33.1827 16.3503 33.6724 15.7462 33.6724Z" fill="#086A41"/>
<path d="M36.6648 25.0077C36.3849 25.0077 36.1049 24.9009 35.8914 24.6874C35.4643 24.2602 35.4643 23.5677 35.8914 23.1405L36.1552 22.8766C36.5823 22.4496 37.2749 22.4496 37.7021 22.8766C38.1292 23.3038 38.1292 23.9963 37.7021 24.4235L37.4383 24.6874C37.2246 24.9009 36.9447 25.0077 36.6648 25.0077Z" fill="#086A41"/>
<path d="M19.0714 42.601C18.7915 42.601 18.5115 42.4941 18.298 42.2806C17.8709 41.8535 17.8709 41.1609 18.298 40.7337L18.5618 40.4699C18.9889 40.0429 19.6815 40.0429 20.1087 40.4699C20.5358 40.897 20.5358 41.5896 20.1087 42.0168L19.8449 42.2806C19.6313 42.4942 19.3513 42.601 19.0714 42.601Z" fill="#086A41"/>
<path d="M36.9286 42.601C36.6487 42.601 36.3687 42.4941 36.1552 42.2806L35.8914 42.0168C35.4643 41.5897 35.4643 40.8971 35.8914 40.4699C36.3185 40.0429 37.0111 40.0429 37.4383 40.4699L37.7021 40.7337C38.1292 41.1608 38.1292 41.8534 37.7021 42.2806C37.4884 42.4942 37.2085 42.601 36.9286 42.601Z" fill="#086A41"/>
<path d="M19.3352 25.0077C19.0553 25.0077 18.7753 24.9009 18.5618 24.6874L18.298 24.4235C17.8709 23.9964 17.8709 23.3039 18.298 22.8766C18.7251 22.4496 19.4177 22.4496 19.8449 22.8766L20.1087 23.1405C20.5358 23.5676 20.5358 24.2601 20.1087 24.6874C19.8951 24.9009 19.6151 25.0077 19.3352 25.0077Z" fill="#086A41"/>
<path d="M34.5416 31.3211H31.7768C31.4118 30.1179 30.4609 29.167 29.2576 28.802V25.3777C29.2576 24.7736 28.7679 24.2839 28.1638 24.2839C27.5598 24.2839 27.0701 24.7736 27.0701 25.3777V28.802C25.5205 29.272 24.3892 30.7139 24.3892 32.4149C24.3892 34.4962 26.0825 36.1895 28.1638 36.1895C29.865 36.1895 31.3068 35.0584 31.7768 33.5086H34.5416C35.1457 33.5086 35.6354 33.0188 35.6354 32.4149C35.6354 31.8109 35.1457 31.3211 34.5416 31.3211ZM28.1638 34.002C27.2887 34.002 26.5767 33.29 26.5767 32.4149C26.5767 31.5398 27.2886 30.8278 28.1638 30.8278C29.039 30.8278 29.751 31.5398 29.751 32.4149C29.7509 33.29 29.039 34.002 28.1638 34.002Z" fill="#086A41"/>
</g>
<defs>
<clipPath id="clip0_418_1087">
<rect width="56" height="56" fill="white" transform="translate(0 0.000244141)"/>
</clipPath>
</defs>
</svg>
