<svg width="20" height="21" viewBox="0 0 20 21" fill="none" xmlns="http://www.w3.org/2000/svg">
<path d="M9.40833 13.2417C9.37249 13.2813 9.33909 13.323 9.30833 13.3667C9.27679 13.4131 9.25157 13.4636 9.23333 13.5167C9.2093 13.5639 9.19245 13.6145 9.18333 13.6667C9.17924 13.7221 9.17924 13.7778 9.18333 13.8333C9.18051 13.9426 9.20334 14.0511 9.24999 14.15C9.28742 14.2534 9.34713 14.3473 9.4249 14.4251C9.50266 14.5029 9.59658 14.5626 9.69999 14.6C9.79974 14.6441 9.9076 14.6669 10.0167 14.6669C10.1257 14.6669 10.2336 14.6441 10.3333 14.6C10.4367 14.5626 10.5307 14.5029 10.6084 14.4251C10.6862 14.3473 10.7459 14.2534 10.7833 14.15C10.8203 14.0487 10.8373 13.9411 10.8333 13.8333C10.834 13.7237 10.8129 13.6149 10.7715 13.5134C10.73 13.4119 10.6689 13.3195 10.5917 13.2417C10.5142 13.1636 10.422 13.1016 10.3205 13.0592C10.2189 13.0169 10.11 12.9952 9.99999 12.9952C9.88998 12.9952 9.78106 13.0169 9.67951 13.0592C9.57796 13.1016 9.4858 13.1636 9.40833 13.2417ZM9.99999 2.16666C8.35182 2.16666 6.74065 2.6554 5.37024 3.57108C3.99983 4.48675 2.93173 5.78824 2.301 7.31096C1.67027 8.83368 1.50524 10.5092 1.82678 12.1257C2.14833 13.7423 2.942 15.2271 4.10744 16.3925C5.27287 17.558 6.75773 18.3517 8.37424 18.6732C9.99075 18.9947 11.6663 18.8297 13.189 18.199C14.7117 17.5683 16.0132 16.5002 16.9289 15.1297C17.8446 13.7593 18.3333 12.1482 18.3333 10.5C18.3333 9.40564 18.1178 8.32201 17.699 7.31096C17.2802 6.29991 16.6664 5.38125 15.8925 4.60743C15.1187 3.83361 14.2001 3.21978 13.189 2.80099C12.178 2.3822 11.0943 2.16666 9.99999 2.16666ZM9.99999 17.1667C8.68145 17.1667 7.39252 16.7757 6.29619 16.0431C5.19986 15.3106 4.34538 14.2694 3.8408 13.0512C3.33621 11.833 3.20419 10.4926 3.46143 9.19939C3.71866 7.90618 4.3536 6.7183 5.28595 5.78594C6.2183 4.85359 7.40619 4.21866 8.69939 3.96142C9.9926 3.70419 11.333 3.83621 12.5512 4.34079C13.7694 4.84538 14.8106 5.69986 15.5431 6.79619C16.2757 7.89252 16.6667 9.18145 16.6667 10.5C16.6667 12.2681 15.9643 13.9638 14.714 15.214C13.4638 16.4643 11.7681 17.1667 9.99999 17.1667ZM9.99999 6.33332C9.56088 6.33304 9.12944 6.44842 8.74908 6.66786C8.36873 6.88729 8.05288 7.20304 7.83333 7.58332C7.77303 7.67817 7.73255 7.78424 7.71431 7.89514C7.69606 8.00604 7.70044 8.11948 7.72718 8.22865C7.75392 8.33781 7.80247 8.44044 7.8699 8.53035C7.93733 8.62027 8.02225 8.69562 8.11955 8.75186C8.21686 8.80811 8.32453 8.84409 8.4361 8.85764C8.54768 8.87119 8.66083 8.86204 8.76877 8.83072C8.87671 8.79941 8.9772 8.74658 9.0642 8.67542C9.1512 8.60426 9.2229 8.51624 9.27499 8.41666C9.34841 8.28949 9.45413 8.18397 9.58145 8.11081C9.70876 8.03764 9.85315 7.99941 9.99999 7.99999C10.221 7.99999 10.433 8.08779 10.5892 8.24407C10.7455 8.40035 10.8333 8.61231 10.8333 8.83332C10.8333 9.05434 10.7455 9.2663 10.5892 9.42258C10.433 9.57886 10.221 9.66666 9.99999 9.66666C9.77898 9.66666 9.56702 9.75445 9.41074 9.91073C9.25446 10.067 9.16666 10.279 9.16666 10.5V11.3333C9.16666 11.5543 9.25446 11.7663 9.41074 11.9226C9.56702 12.0789 9.77898 12.1667 9.99999 12.1667C10.221 12.1667 10.433 12.0789 10.5892 11.9226C10.7455 11.7663 10.8333 11.5543 10.8333 11.3333V11.1833C11.3845 10.9833 11.8478 10.596 12.1423 10.089C12.4368 9.58208 12.5438 8.98773 12.4445 8.4099C12.3452 7.83206 12.046 7.3075 11.5992 6.92792C11.1523 6.54833 10.5863 6.33787 9.99999 6.33332Z" fill="#8F8F8F"/>
</svg>
