<svg width="26" height="24" viewBox="0 0 26 24" fill="none" xmlns="http://www.w3.org/2000/svg">
<path d="M7.46166 16.1425L6.49999 17.09V4C6.49999 3.73478 6.38586 3.48043 6.18269 3.29289C5.97953 3.10536 5.70398 3 5.41666 3C5.12934 3 4.85379 3.10536 4.65063 3.29289C4.44746 3.48043 4.33333 3.73478 4.33333 4V17.09L3.37166 16.1425C3.16767 15.9542 2.89099 15.8484 2.60249 15.8484C2.314 15.8484 2.03732 15.9542 1.83333 16.1425C1.62933 16.3308 1.51473 16.5862 1.51473 16.8525C1.51473 17.1188 1.62933 17.3742 1.83333 17.5625L4.64749 20.21C4.75052 20.301 4.87201 20.3724 5.00499 20.42C5.13467 20.4729 5.27488 20.5002 5.41666 20.5002C5.55844 20.5002 5.69865 20.4729 5.82833 20.42C5.96131 20.3724 6.0828 20.301 6.18583 20.21L9 17.5625C9.101 17.4693 9.18113 17.3586 9.23579 17.2367C9.29046 17.1149 9.31859 16.9844 9.31859 16.8525C9.31859 16.7206 9.29046 16.5901 9.23579 16.4682C9.18113 16.3464 9.101 16.2357 9 16.1425C8.89899 16.0493 8.77907 15.9753 8.6471 15.9248C8.51512 15.8744 8.37368 15.8484 8.23083 15.8484C8.08798 15.8484 7.94653 15.8744 7.81456 15.9248C7.68258 15.9753 7.56267 16.0493 7.46166 16.1425ZM11.9167 10.5H22.75C23.0373 10.5 23.3129 10.3946 23.516 10.2071C23.7192 10.0196 23.8333 9.76522 23.8333 9.5C23.8333 9.23478 23.7192 8.98043 23.516 8.79289C23.3129 8.60536 23.0373 8.5 22.75 8.5H11.9167C11.6293 8.5 11.3538 8.60536 11.1506 8.79289C10.9475 8.98043 10.8333 9.23478 10.8333 9.5C10.8333 9.76522 10.9475 10.0196 11.1506 10.2071C11.3538 10.3946 11.6293 10.5 11.9167 10.5ZM22.75 13.5H14.0833C13.796 13.5 13.5205 13.6054 13.3173 13.7929C13.1141 13.9804 13 14.2348 13 14.5C13 14.7652 13.1141 15.0196 13.3173 15.2071C13.5205 15.3946 13.796 15.5 14.0833 15.5H22.75C23.0373 15.5 23.3129 15.3946 23.516 15.2071C23.7192 15.0196 23.8333 14.7652 23.8333 14.5C23.8333 14.2348 23.7192 13.9804 23.516 13.7929C23.3129 13.6054 23.0373 13.5 22.75 13.5ZM22.75 18.5H17.3333C17.046 18.5 16.7705 18.6054 16.5673 18.7929C16.3641 18.9804 16.25 19.2348 16.25 19.5C16.25 19.7652 16.3641 20.0196 16.5673 20.2071C16.7705 20.3946 17.046 20.5 17.3333 20.5H22.75C23.0373 20.5 23.3129 20.3946 23.516 20.2071C23.7192 20.0196 23.8333 19.7652 23.8333 19.5C23.8333 19.2348 23.7192 18.9804 23.516 18.7929C23.3129 18.6054 23.0373 18.5 22.75 18.5Z" fill="#4E4E4E"/>
<path d="M22.75 5H9.9167C9.62938 5 9.35383 4.89464 9.15067 4.70711C8.94751 4.51957 8.83337 4.26522 8.83337 4C8.83337 3.73478 8.94751 3.48043 9.15067 3.29289C9.35383 3.10536 9.62938 3 9.9167 3H22.75C23.0374 3 23.3129 3.10536 23.5161 3.29289C23.7192 3.48043 23.8334 3.73478 23.8334 4C23.8334 4.26522 23.7192 4.51957 23.5161 4.70711C23.3129 4.89464 23.0374 5 22.75 5Z" fill="#4E4E4E"/>
</svg>
