<svg width="56" height="56" viewBox="0 0 56 56" fill="none" xmlns="http://www.w3.org/2000/svg">
<g clip-path="url(#clip0_418_1078)">
<path d="M31.9689 0.277588C24.7045 0.277588 18.1929 3.49822 13.7863 8.58833C14.4015 8.89929 14.9785 9.3123 15.4925 9.82769L18.5912 12.9347C21.8107 9.1513 26.6092 6.751 31.9689 6.751C41.6628 6.751 49.5211 14.6027 49.5211 24.2882C49.5211 29.6642 47.1001 34.4752 43.2879 37.6922L45.777 40.188C46.5153 40.9283 47.0428 41.8004 47.3599 42.729C52.6404 38.3245 56.0001 31.6984 56.0001 24.2882C56 11.0276 45.241 0.277588 31.9689 0.277588Z" fill="#C6F6E2"/>
<path d="M46.5514 39.4158L42.9778 35.8326C41.5648 34.4158 39.6871 33.6355 37.6905 33.6355C35.6939 33.6355 33.8161 34.4158 32.4029 35.8328L29.175 39.0714L16.6086 26.4762L19.8406 23.2336C22.7537 20.3126 22.7537 15.5598 19.8406 12.6388L16.267 9.05562C14.8068 7.59149 12.8664 6.78516 10.8031 6.78516C8.73982 6.78516 6.79946 7.59149 5.33927 9.05562C5.3093 9.0857 5.28108 9.11742 5.25483 9.15078L3.50511 11.3699C1.83491 13.4883 0.706463 16.0073 0.241607 18.6549C-0.227186 21.3252 -0.0111651 24.078 0.866154 26.6159C1.50186 28.4548 2.30141 29.8655 3.2425 30.8092L24.8742 52.4935C25.6203 53.2416 26.6676 53.9066 27.9871 54.4701C29.9562 55.311 32.0472 55.7232 34.1354 55.7231C37.6121 55.723 41.0797 54.5802 43.9548 52.3715L46.4432 50.4597C46.4813 50.4305 46.5174 50.3987 46.5513 50.3647C49.5619 47.346 49.5619 42.4344 46.5514 39.4158ZM45.0508 48.7707L42.6221 50.6366C38.6462 53.691 33.3675 54.389 28.8462 52.4583C27.7857 52.0053 26.9705 51.4974 26.423 50.9485L4.79129 29.2643C4.08558 28.5566 3.46049 27.4251 2.93372 25.901C1.38778 21.429 2.24355 16.5032 5.223 12.7243L6.93148 10.5574C7.97308 9.53502 9.34567 8.97271 10.8031 8.97271C12.2809 8.97271 13.6712 9.55077 14.718 10.6004L18.2916 14.1836C20.3552 16.2528 20.3552 19.6197 18.2913 21.6891L14.2891 25.7045C13.8635 26.1315 13.8636 26.8224 14.2894 27.2492L28.4009 41.3929C28.6061 41.5987 28.8849 41.7143 29.1754 41.7142C29.466 41.7141 29.7447 41.5984 29.9498 41.3926L33.9518 37.3775C34.9514 36.3751 36.2791 35.8232 37.6903 35.8232C39.1015 35.8232 40.4291 36.3751 41.4287 37.3775L45.0023 40.9607C47.1472 43.1112 47.1634 46.6001 45.0508 48.7707Z" fill="#086A41"/>
<path d="M39.4857 24.2493H39.3631C39.3763 21.9475 39.3832 19.4873 39.3548 19.1453C39.2907 18.3735 38.8272 17.7445 38.1739 17.5429C37.5261 17.343 36.8383 17.5944 36.334 18.2158C35.7894 18.887 33.2757 23.4377 32.5182 24.8164C32.3321 25.1553 32.3386 25.5672 32.5355 25.9C32.7324 26.2328 33.0903 26.4369 33.4768 26.4369H37.1608C37.1563 27.0504 37.1516 27.6385 37.1471 28.1698C37.142 28.7739 37.6274 29.2678 38.2315 29.2729C38.2346 29.273 38.2379 29.273 38.2411 29.273C38.8407 29.273 39.3295 28.7895 39.3345 28.1887C39.3374 27.8606 39.3426 27.2254 39.3485 26.4369H39.4856C40.0897 26.4369 40.5794 25.9472 40.5794 25.3431C40.5795 24.739 40.0897 24.2493 39.4857 24.2493ZM37.1751 24.2493H35.3317C36.0155 23.0213 36.682 21.8432 37.1873 20.9742C37.1869 21.8718 37.1821 23.039 37.1751 24.2493Z" fill="#086A41"/>
<path d="M30.8937 27.3904C29.9319 27.4026 28.9114 27.4106 28.0651 27.4122C28.5964 26.6987 29.3354 25.6848 30.3347 24.251C30.9465 23.3732 31.3454 22.5437 31.5204 21.7855C31.5614 21.6122 31.5956 21.2823 31.5957 21.1678C31.5977 19.2089 30.0067 17.6152 28.0535 17.6152C26.3643 17.6152 24.9025 18.8206 24.5776 20.4814C24.4617 21.0742 24.8482 21.6488 25.4411 21.7647C26.0339 21.8805 26.6085 21.494 26.7245 20.9012C26.849 20.2647 27.4079 19.8028 28.0535 19.8028C28.7808 19.8028 29.3759 20.3833 29.4069 21.1085L29.3771 21.3422C29.2578 21.8167 28.9763 22.3743 28.5399 23.0003C27.0243 25.1751 26.1198 26.3644 25.6341 27.0033C25.0337 27.7927 24.7597 28.153 24.9461 28.7579C25.0556 29.1132 25.3247 29.3861 25.6843 29.5065C25.8305 29.5555 25.9708 29.6024 27.8312 29.6024C28.5614 29.6024 29.5568 29.5952 30.9212 29.5779C31.5252 29.5703 32.0087 29.0744 32.0011 28.4704C31.9936 27.8663 31.4959 27.3843 30.8937 27.3904Z" fill="#086A41"/>
</g>
<defs>
<clipPath id="clip0_418_1078">
<rect width="56" height="56" fill="white" transform="translate(0 0.000244141)"/>
</clipPath>
</defs>
</svg>
