<svg width="56" height="56" viewBox="0 0 56 56" fill="none" xmlns="http://www.w3.org/2000/svg">
<path d="M54.9063 37.2265H54.8731V30.8591C54.8727 30.6607 54.8331 30.547 54.7941 30.4501L50.8293 19.9619C50.6685 19.5364 50.2612 19.2549 49.8062 19.2549H43.3365V12.3997C43.3365 10.7565 42.0005 9.41968 40.3583 9.41968H21.0873C21.4386 10.1121 21.7236 10.8441 21.9341 11.6072H40.3583C40.7943 11.6072 41.149 11.9628 41.149 12.3997V37.2264H9.87659V25.2876C9.12091 25.1674 8.38941 24.9748 7.68909 24.717V37.2265H7.65594C7.05187 37.2265 6.56219 37.7162 6.56219 38.3203V45.0479C6.56219 45.652 7.05187 46.1417 7.65594 46.1417H12.7317C12.6519 46.5219 12.6099 46.9159 12.6099 47.3196C12.6099 50.4614 15.1533 53.0175 18.2796 53.0175C21.4059 53.0175 23.9494 50.4614 23.9494 47.3196C23.9494 46.9159 23.9074 46.5219 23.8276 46.1417H39.932C39.8521 46.5219 39.8101 46.9159 39.8101 47.3196C39.8101 50.4614 42.3536 53.0175 45.48 53.0175C48.6064 53.0175 51.1498 50.4614 51.1498 47.3196C51.1498 46.9159 51.1078 46.5219 51.0279 46.1417H54.9063C55.5102 46.1417 56 45.652 56 45.0479V38.3203C56 37.7163 55.5102 37.2265 54.9063 37.2265ZM43.3367 21.4425H49.0504L52.1967 29.7654H43.3367V21.4425ZM43.3367 31.9529H52.6857V37.226H43.3367V31.9529ZM18.2798 50.83C16.3596 50.83 14.7975 49.2554 14.7975 47.3196C14.7975 45.384 16.3597 43.8093 18.2798 43.8093C20.1998 43.8093 21.762 45.3839 21.762 47.3196C21.762 49.2554 20.1999 50.83 18.2798 50.83ZM45.48 50.83C43.5598 50.83 41.9976 49.2554 41.9976 47.3196C41.9976 45.384 43.5598 43.8093 45.48 43.8093C47.4002 43.8093 48.9623 45.3839 48.9623 47.3196C48.9623 49.2554 47.4002 50.83 45.48 50.83ZM53.8125 43.9542H50.0675C50.0626 43.9542 50.0577 43.9543 50.0528 43.9544C49.02 42.5409 47.3549 41.6219 45.4801 41.6219C43.6054 41.6219 41.9403 42.5409 40.9076 43.9543H22.868C22.8628 43.9543 22.8576 43.9544 22.8524 43.9545C21.8196 42.5411 20.1544 41.622 18.2798 41.622C16.4051 41.622 14.7401 42.5411 13.7072 43.9544H8.7498V39.4142H53.8125V43.9542Z" fill="#086A41"/>
<path d="M11.7258 26.5268C18.2017 26.5268 23.4515 21.2563 23.4515 14.7548C23.4515 8.25338 18.2017 2.98291 11.7258 2.98291C5.2498 2.98291 0 8.25338 0 14.7548C0 21.2563 5.2498 26.5268 11.7258 26.5268Z" fill="#C6F6E2"/>
<path d="M13.7658 16.3606H11.7259C11.1218 16.3606 10.6321 15.871 10.6321 15.2669V11.8535C10.6321 11.2494 11.1218 10.7598 11.7259 10.7598C12.33 10.7598 12.8196 11.2494 12.8196 11.8535V14.1731H13.7658C14.3699 14.1731 14.8596 14.6628 14.8596 15.2669C14.8596 15.8711 14.3699 16.3606 13.7658 16.3606Z" fill="#086A41"/>
</svg>
