<svg width="15" height="13" viewBox="0 0 15 13" fill="none" xmlns="http://www.w3.org/2000/svg">
<path d="M3.72736 0L4.53219 0.76555L3.72736 1.5311L2.92254 0.76555L3.72736 0ZM3.79276 5.29187C4.31925 5.29187 4.73005 5.21053 5.02515 5.04785C5.32026 4.88517 5.52817 4.66826 5.64889 4.39713C5.76962 4.12919 5.82998 3.83573 5.82998 3.51675C5.82998 3.15311 5.77465 2.78788 5.66398 2.42105C5.55332 2.05104 5.4393 1.72727 5.32193 1.44976L6.39336 1.05263C6.56439 1.49282 6.69014 1.91069 6.77062 2.30622C6.85111 2.70175 6.89135 3.08931 6.89135 3.4689C6.89135 4.04944 6.77901 4.55662 6.55433 4.99043C6.32964 5.42743 5.98759 5.76714 5.52817 6.00957C5.0721 6.25199 4.49363 6.37321 3.79276 6.37321C3.06841 6.37321 2.48156 6.24402 2.03219 5.98565C1.58618 5.73046 1.25922 5.38596 1.05131 4.95215C0.843394 4.51834 0.739437 4.03668 0.739437 3.50718C0.739437 3.14992 0.778001 2.78309 0.855131 2.4067C0.935614 2.02711 1.04795 1.65391 1.19215 1.28708L2.17807 1.6555C2.07076 1.9681 1.97854 2.2823 1.90141 2.59809C1.82763 2.91388 1.79074 3.21372 1.79074 3.49761C1.79074 3.82616 1.85111 4.126 1.97183 4.39713C2.09591 4.66826 2.30382 4.88517 2.59557 5.04785C2.88732 5.21053 3.28639 5.29187 3.79276 5.29187Z" fill="#4E4E4E"/>
<path d="M0 5.69378H1.07143V10.1818C1.07143 10.5805 1.14185 10.8565 1.2827 11.0096C1.42689 11.1627 1.67002 11.2392 2.01207 11.2392H2.13783V12.3349H2.01207C1.32461 12.3349 0.816566 12.1627 0.487928 11.8182C0.162643 11.4737 0 10.9442 0 10.2297V5.69378Z" fill="#4E4E4E"/>
<path d="M5.46278 12.445C5.12072 12.445 4.80382 12.3748 4.51207 12.2344C4.22032 12.0941 3.92522 11.8995 3.62676 11.6507C3.4222 11.8581 3.21932 12.0239 3.01811 12.1483C2.82026 12.2727 2.53521 12.3349 2.16298 12.3349H1.94165V11.2392H2.13783C2.33568 11.2392 2.50671 11.1786 2.65091 11.0574C2.79846 10.933 2.9326 10.7751 3.05332 10.5837C3.17404 10.3892 3.29645 10.1834 3.42052 9.96651C3.54795 9.7496 3.69048 9.54545 3.84809 9.35407C4.0057 9.15949 4.19182 9.00159 4.40644 8.88038C4.62441 8.75598 4.88598 8.69378 5.19115 8.69378C5.58685 8.69378 5.92891 8.78309 6.2173 8.96172C6.50905 9.14035 6.73374 9.37959 6.89135 9.67943C7.05231 9.97608 7.1328 10.303 7.1328 10.6603C7.1328 11.1994 6.99028 11.6316 6.70523 11.9569C6.42019 12.2823 6.00604 12.445 5.46278 12.445ZM5.22133 9.74641C5.06707 9.74641 4.92622 9.79585 4.79879 9.89474C4.67472 9.99362 4.56237 10.118 4.46177 10.2679C4.36452 10.4147 4.27901 10.563 4.20523 10.7129C4.30919 10.8118 4.40979 10.8979 4.50704 10.9713C4.60429 11.0415 4.69819 11.1037 4.78873 11.1579C5.04024 11.3014 5.26492 11.3732 5.46278 11.3732C5.68075 11.3732 5.84004 11.3126 5.94064 11.1914C6.0446 11.0702 6.09658 10.9091 6.09658 10.7081C6.09658 10.4338 6.01945 10.2057 5.86519 10.0239C5.71093 9.83891 5.49631 9.74641 5.22133 9.74641Z" fill="#4E4E4E"/>
<path d="M9.72837 6.7177C10.1107 6.7177 10.446 6.82616 10.7344 7.04306C11.0228 7.25997 11.2492 7.563 11.4135 7.95215C11.5812 8.34131 11.6751 8.79745 11.6952 9.32057H12.2032V10.4163H11.6046C11.5074 10.8341 11.333 11.2153 11.0815 11.5598C10.8333 11.9043 10.4863 12.1994 10.0402 12.445C9.59423 12.6906 9.02918 12.8756 8.34507 13L7.95775 12.0144C8.66197 11.8836 9.2438 11.6842 9.70322 11.4163C10.1626 11.1515 10.4544 10.8182 10.5785 10.4163H9.92455C9.26727 10.4163 8.77264 10.2887 8.44064 10.0335C8.10865 9.77831 7.94266 9.38118 7.94266 8.8421C7.94266 8.60606 7.97954 8.36364 8.05332 8.11483C8.13045 7.86603 8.24447 7.63636 8.39537 7.42584C8.54628 7.21531 8.73239 7.04466 8.95372 6.91388C9.1784 6.78309 9.43662 6.7177 9.72837 6.7177ZM9.89437 9.32057H10.674C10.6405 8.85805 10.5483 8.48963 10.3974 8.21531C10.2498 7.9378 10.0235 7.79904 9.71831 7.79904C9.52716 7.79904 9.37626 7.85646 9.26559 7.97129C9.15828 8.08612 9.08283 8.22169 9.03924 8.37799C8.99564 8.5311 8.97384 8.67145 8.97384 8.79904C8.97384 9 9.05097 9.13716 9.20523 9.21053C9.35949 9.28389 9.5892 9.32057 9.89437 9.32057Z" fill="#4E4E4E"/>
<path d="M14.2254 4.54545L15 5.27751L14.2254 6.01914L13.4608 5.27751L14.2254 4.54545ZM12.5453 4.54545L13.3199 5.27751L12.5453 6.01914L11.7757 5.27751L12.5453 4.54545ZM13.0382 10.4163H12.007V9.32057H13.0382C13.3367 9.32057 13.5396 9.23604 13.6469 9.06699C13.7575 8.89793 13.8129 8.68262 13.8129 8.42105C13.8129 8.21053 13.7894 7.98246 13.7425 7.73684C13.6955 7.48804 13.6469 7.24242 13.5966 7L14.663 6.74163C14.7233 7.01914 14.7703 7.29027 14.8038 7.55502C14.8407 7.81978 14.8592 8.07496 14.8592 8.32057C14.8592 8.72249 14.8021 9.08134 14.6881 9.39713C14.5741 9.71292 14.383 9.96172 14.1147 10.1435C13.8498 10.3254 13.4909 10.4163 13.0382 10.4163Z" fill="#4E4E4E"/>
</svg>
