<svg width="60" height="15" viewBox="0 0 60 15" fill="none" xmlns="http://www.w3.org/2000/svg">
<path d="M2.8016 11.7571C1.8215 11.7571 1.10954 11.4476 0.665727 10.8286C0.221909 10.2 0 9.32857 0 8.21428C0 7.51905 0.087839 6.91429 0.263517 6.4C0.448441 5.88571 0.74432 5.48571 1.15115 5.2C1.55799 4.91429 2.10814 4.77143 2.8016 4.77143C3.50431 4.77143 4.05909 4.91429 4.46592 5.2C4.87275 5.48571 5.16401 5.89048 5.33968 6.41429C5.51536 6.92857 5.6032 7.52857 5.6032 8.21428C5.6032 9.31905 5.38129 10.1857 4.93748 10.8143C4.5029 11.4429 3.79095 11.7571 2.8016 11.7571ZM2.8016 10.2429C3.05125 10.2429 3.2408 10.1619 3.37024 10C3.50894 9.83809 3.60602 9.64286 3.6615 9.41428C3.72622 9.18571 3.76321 8.96667 3.77245 8.75714C3.79095 8.53809 3.80019 8.37143 3.80019 8.25714C3.80019 8.14286 3.79095 7.98095 3.77245 7.77143C3.76321 7.55238 3.72622 7.32857 3.6615 7.1C3.60602 6.87143 3.50894 6.68095 3.37024 6.52857C3.2408 6.36667 3.05125 6.28571 2.8016 6.28571C2.55195 6.28571 2.35778 6.36667 2.21909 6.52857C2.08964 6.68095 1.99256 6.87143 1.92783 7.1C1.87236 7.32857 1.83537 7.55238 1.81688 7.77143C1.80763 7.98095 1.80301 8.14286 1.80301 8.25714C1.80301 8.37143 1.80763 8.53809 1.81688 8.75714C1.83537 8.96667 1.87236 9.18571 1.92783 9.41428C1.99256 9.64286 2.08964 9.83809 2.21909 10C2.35778 10.1619 2.55195 10.2429 2.8016 10.2429Z" fill="#F9620B"/>
<path d="M9.11463 11.6286V10.1143H10.5432V11.6286H9.11463ZM7.42257 14.9C7.19142 14.9 6.99725 14.8476 6.84006 14.7429C6.68288 14.6381 6.56268 14.5143 6.47946 14.3714C6.40549 14.2381 6.36851 14.1238 6.36851 14.0286C6.56268 13.8762 6.72911 13.7048 6.8678 13.5143C7.00649 13.3238 7.11283 13.0762 7.1868 12.7714C7.27001 12.4762 7.31162 12.0952 7.31162 11.6286V5.65714C7.31162 5.38095 7.39483 5.16667 7.56127 5.01429C7.73694 4.85238 7.95423 4.77143 8.21312 4.77143C8.48126 4.77143 8.69855 4.85238 8.86498 5.01429C9.03141 5.16667 9.11463 5.38095 9.11463 5.65714V11.6286C9.11463 12.0476 9.07764 12.4524 9.00367 12.8429C8.93895 13.2333 8.83724 13.581 8.69855 13.8857C8.5691 14.2 8.39805 14.4476 8.18539 14.6286C7.97272 14.8095 7.71845 14.9 7.42257 14.9ZM10.5432 11.6286V10.1143C10.6449 10.1143 10.7142 10.1857 10.7512 10.3286C10.7974 10.4619 10.8206 10.6429 10.8206 10.8714C10.8206 11.1 10.7974 11.2857 10.7512 11.4286C10.7142 11.5619 10.6449 11.6286 10.5432 11.6286ZM9.33654 3.84286C9.09614 3.84286 8.88347 3.75238 8.69855 3.57143C8.52287 3.39048 8.43503 3.17143 8.43503 2.91429C8.43503 2.65714 8.52287 2.43809 8.69855 2.25714C8.88347 2.07619 9.09614 1.98571 9.33654 1.98571C9.59543 1.98571 9.80809 2.07619 9.97453 2.25714C10.1502 2.43809 10.238 2.65714 10.238 2.91429C10.238 3.17143 10.1502 3.39048 9.97453 3.57143C9.80809 3.75238 9.59543 3.84286 9.33654 3.84286ZM7.08971 3.84286C6.84931 3.84286 6.63665 3.75238 6.45172 3.57143C6.27604 3.39048 6.1882 3.17143 6.1882 2.91429C6.1882 2.65714 6.27604 2.43809 6.45172 2.25714C6.63665 2.07619 6.84931 1.98571 7.08971 1.98571C7.33936 1.98571 7.55202 2.07619 7.7277 2.25714C7.90338 2.43809 7.99122 2.65714 7.99122 2.91429C7.99122 3.17143 7.90338 3.39048 7.7277 3.57143C7.55202 3.75238 7.33936 3.84286 7.08971 3.84286ZM8.21312 1.71429C7.97272 1.71429 7.77393 1.63333 7.61674 1.47143C7.45956 1.3 7.38097 1.09524 7.38097 0.857143C7.38097 0.609524 7.45956 0.404761 7.61674 0.242857C7.77393 0.0809522 7.9681 0 8.19925 0C8.43966 0 8.63845 0.0809522 8.79563 0.242857C8.96207 0.404761 9.04528 0.609524 9.04528 0.857143C9.04528 1.09524 8.96207 1.3 8.79563 1.47143C8.63845 1.63333 8.44428 1.71429 8.21312 1.71429Z" fill="#F9620B"/>
<path d="M10.1311 11.6286V10.1143H11.4071C11.5088 10.1143 11.6059 10.0857 11.6983 10.0286C11.7908 9.97143 11.8786 9.89048 11.9618 9.78571C12.0451 9.67143 12.1144 9.52857 12.1699 9.35714C12.2346 9.17619 12.2808 8.96667 12.3086 8.72857C12.3456 8.48095 12.3641 8.20476 12.3641 7.9C12.3641 7.43333 12.3224 7.0619 12.2392 6.78571C12.1653 6.50952 12.0589 6.28571 11.9202 6.11429C11.7815 5.94286 11.6151 5.78571 11.4209 5.64286C11.4209 5.53809 11.4579 5.41905 11.5319 5.28571C11.6151 5.15238 11.7353 5.03333 11.8925 4.92857C12.0589 4.82381 12.2577 4.77143 12.4889 4.77143C12.7755 4.77143 13.0252 4.85714 13.2378 5.02857C13.4505 5.2 13.6215 5.43333 13.751 5.72857C13.8897 6.01429 13.9914 6.34762 14.0561 6.72857C14.1301 7.1 14.1671 7.49524 14.1671 7.91429C14.1671 9.06667 13.9267 9.97619 13.4459 10.6429C12.9651 11.3 12.2855 11.6286 11.4071 11.6286H10.1311ZM10.1311 11.6286C10.0386 11.6286 9.96929 11.5619 9.92306 11.4286C9.87683 11.2857 9.85371 11.1 9.85371 10.8714C9.85371 10.6429 9.87683 10.4619 9.92306 10.3286C9.96929 10.1857 10.0386 10.1143 10.1311 10.1143V11.6286ZM13.6123 14.7C13.3719 14.7 13.1592 14.6095 12.9743 14.4286C12.7986 14.2476 12.7108 14.0286 12.7108 13.7714C12.7108 13.5143 12.7986 13.2952 12.9743 13.1143C13.1592 12.9333 13.3719 12.8429 13.6123 12.8429C13.8712 12.8429 14.0839 12.9333 14.2503 13.1143C14.426 13.2952 14.5138 13.5143 14.5138 13.7714C14.5138 14.0286 14.426 14.2476 14.2503 14.4286C14.0839 14.6095 13.8712 14.7 13.6123 14.7ZM11.3655 14.7C11.1251 14.7 10.9124 14.6095 10.7275 14.4286C10.5518 14.2476 10.464 14.0286 10.464 13.7714C10.464 13.5143 10.5518 13.2952 10.7275 13.1143C10.9124 12.9333 11.1251 12.8429 11.3655 12.8429C11.6151 12.8429 11.8278 12.9333 12.0035 13.1143C12.1791 13.2952 12.267 13.5143 12.267 13.7714C12.267 14.0286 12.1791 14.2476 12.0035 14.4286C11.8278 14.6095 11.6151 14.7 11.3655 14.7Z" fill="#F9620B"/>
<path d="M18.4034 11.6286C17.8671 11.6286 17.3771 11.4952 16.9332 11.2286C16.4894 10.9524 16.1381 10.5571 15.8792 10.0429C15.6203 9.52857 15.4908 8.90952 15.4908 8.18571C15.4908 7.10952 15.7821 6.27143 16.3646 5.67143C16.9564 5.07143 17.7469 4.77143 18.7362 4.77143C19.4667 4.77143 20.0585 4.92381 20.5115 5.22857C20.9738 5.52381 21.205 5.9 21.205 6.35714V11.6286H19.402V6.35714C19.3373 6.33809 19.2448 6.32381 19.1246 6.31429C19.0044 6.29524 18.8749 6.28571 18.7362 6.28571C18.2554 6.28571 17.8948 6.43333 17.6544 6.72857C17.414 7.02381 17.2938 7.50952 17.2938 8.18571C17.2938 8.79524 17.4002 9.27143 17.6128 9.61428C17.8347 9.94762 18.1584 10.1143 18.5837 10.1143H21.205V11.6286H18.4034ZM19.5129 14.9C19.2818 14.9 19.0876 14.8476 18.9304 14.7429C18.7732 14.6381 18.653 14.5143 18.5698 14.3714C18.4958 14.2381 18.4589 14.1238 18.4589 14.0286C18.653 13.8762 18.8195 13.7048 18.9582 13.5143C19.0968 13.3238 19.2032 13.0762 19.2772 12.7714C19.3604 12.4762 19.402 12.0952 19.402 11.6286V10.1143H21.205V11.6286C21.205 12.0476 21.168 12.4524 21.094 12.8429C21.0293 13.2333 20.9276 13.581 20.7889 13.8857C20.6595 14.2 20.4884 14.4476 20.2757 14.6286C20.0631 14.8095 19.8088 14.9 19.5129 14.9Z" fill="#F9620B"/>
<path d="M28.9533 15C28.0842 15 27.3306 14.8476 26.6926 14.5429C26.0546 14.2476 25.56 13.8143 25.2086 13.2429C24.8665 12.681 24.6955 12 24.6955 11.2C24.6955 10.8571 24.7278 10.5143 24.7925 10.1714C24.8665 9.82857 24.9728 9.51429 25.1115 9.22857C25.2502 8.94286 25.4213 8.71428 25.6247 8.54286C25.8374 8.37143 26.087 8.28571 26.3736 8.28571C26.614 8.28571 26.8128 8.33809 26.97 8.44286C27.1272 8.54762 27.2428 8.66667 27.3168 8.8C27.4 8.93333 27.4416 9.05238 27.4416 9.15714C27.2936 9.27143 27.1457 9.40952 26.9978 9.57143C26.8498 9.73333 26.7296 9.94762 26.6372 10.2143C26.5447 10.4714 26.4985 10.8048 26.4985 11.2143C26.4985 11.9762 26.6973 12.5429 27.0948 12.9143C27.4924 13.2952 28.1119 13.4857 28.9533 13.4857C29.6653 13.4857 30.1692 13.3286 30.4651 13.0143C30.761 12.7 30.9089 12.1333 30.9089 11.3143V6.52857C30.9089 6.29048 30.9736 6.07143 31.1031 5.87143C31.2325 5.6619 31.4683 5.55714 31.8104 5.55714C32.1525 5.55714 32.3883 5.6619 32.5177 5.87143C32.6472 6.07143 32.7119 6.29048 32.7119 6.52857V11.3143C32.7119 12.4381 32.416 13.3333 31.8243 14C31.2325 14.6667 30.2755 15 28.9533 15ZM33.6273 11.6286C33.1095 11.6286 32.6426 11.5095 32.2265 11.2714C31.8197 11.0333 31.496 10.7048 31.2556 10.2857C31.0245 9.86667 30.9089 9.39524 30.9089 8.87143H32.7119C32.7119 9.0619 32.7443 9.25714 32.809 9.45714C32.8737 9.64762 32.9754 9.80476 33.1141 9.92857C33.2528 10.0524 33.4239 10.1143 33.6273 10.1143H33.9324V11.6286H33.6273ZM38.0932 11.6286C37.5754 11.6286 37.1085 11.5095 36.6924 11.2714C36.2856 11.0333 35.962 10.7048 35.7216 10.2857C35.4904 9.86667 35.3748 9.39524 35.3748 8.87143H37.1778C37.1778 9.0619 37.2102 9.25714 37.2749 9.45714C37.3396 9.64762 37.4413 9.80476 37.58 9.92857C37.7187 10.0524 37.8898 10.1143 38.0932 10.1143H38.6757V11.6286H38.0932ZM33.9324 11.6286V10.1143H34.4594C34.6721 10.1143 34.8432 10.0524 34.9726 9.92857C35.1113 9.80476 35.213 9.64762 35.2777 9.45714C35.3425 9.25714 35.3748 9.0619 35.3748 8.87143V6.15714C35.3748 5.93809 35.4395 5.72857 35.569 5.52857C35.6984 5.31905 35.9342 5.21428 36.2763 5.21428C36.6184 5.21428 36.8542 5.31905 36.9837 5.52857C37.1131 5.72857 37.1778 5.93809 37.1778 6.15714V8.87143C37.1778 9.39524 37.0576 9.86667 36.8172 10.2857C36.5861 10.7048 36.2671 11.0333 35.8602 11.2714C35.4534 11.5095 34.9865 11.6286 34.4594 11.6286H33.9324ZM38.6757 11.6286V10.1143H39.0641C39.1658 10.1143 39.2629 10.0857 39.3553 10.0286C39.4478 9.97143 39.5356 9.89048 39.6188 9.78571C39.702 9.67143 39.7714 9.52857 39.8269 9.35714C39.8916 9.17619 39.9378 8.96667 39.9656 8.72857C40.0025 8.48095 40.021 8.20476 40.021 7.9C40.021 7.43333 39.9794 7.0619 39.8962 6.78571C39.8222 6.50952 39.7159 6.28571 39.5772 6.11429C39.4385 5.94286 39.2721 5.78571 39.0779 5.64286C39.0779 5.53809 39.1149 5.41905 39.1889 5.28571C39.2721 5.15238 39.3923 5.03333 39.5495 4.92857C39.7159 4.82381 39.9147 4.77143 40.1459 4.77143C40.4325 4.77143 40.6821 4.85714 40.8948 5.02857C41.1075 5.2 41.2785 5.43333 41.408 5.72857C41.5467 6.01429 41.6484 6.34762 41.7131 6.72857C41.7871 7.1 41.8241 7.49524 41.8241 7.91429C41.8241 9.06667 41.5837 9.97619 41.1028 10.6429C40.622 11.3 39.9424 11.6286 39.0641 11.6286H38.6757ZM37.3997 3.84286C37.1593 3.84286 36.9467 3.75238 36.7618 3.57143C36.5861 3.39048 36.4982 3.17143 36.4982 2.91429C36.4982 2.65714 36.5861 2.43809 36.7618 2.25714C36.9467 2.07619 37.1593 1.98571 37.3997 1.98571C37.6586 1.98571 37.8713 2.07619 38.0377 2.25714C38.2134 2.43809 38.3012 2.65714 38.3012 2.91429C38.3012 3.17143 38.2134 3.39048 38.0377 3.57143C37.8713 3.75238 37.6586 3.84286 37.3997 3.84286ZM35.1529 3.84286C34.9125 3.84286 34.6998 3.75238 34.5149 3.57143C34.3392 3.39048 34.2514 3.17143 34.2514 2.91429C34.2514 2.65714 34.3392 2.43809 34.5149 2.25714C34.6998 2.07619 34.9125 1.98571 35.1529 1.98571C35.4026 1.98571 35.6152 2.07619 35.7909 2.25714C35.9666 2.43809 36.0544 2.65714 36.0544 2.91429C36.0544 3.17143 35.9666 3.39048 35.7909 3.57143C35.6152 3.75238 35.4026 3.84286 35.1529 3.84286ZM36.2763 1.71429C36.0359 1.71429 35.8371 1.63333 35.6799 1.47143C35.5228 1.3 35.4442 1.09524 35.4442 0.857143C35.4442 0.609524 35.5228 0.404761 35.6799 0.242857C35.8371 0.0809522 36.0313 0 36.2625 0C36.5029 0 36.7017 0.0809522 36.8588 0.242857C37.0253 0.404761 37.1085 0.609524 37.1085 0.857143C37.1085 1.09524 37.0253 1.3 36.8588 1.47143C36.7017 1.63333 36.5075 1.71429 36.2763 1.71429Z" fill="#F9620B"/>
<path d="M46.0574 11.6286C45.5212 11.6286 45.0311 11.4952 44.5873 11.2286C44.1435 10.9524 43.7921 10.5571 43.5332 10.0429C43.2743 9.52857 43.1449 8.90952 43.1449 8.18571C43.1449 7.10952 43.4361 6.27143 44.0187 5.67143C44.6104 5.07143 45.401 4.77143 46.3903 4.77143C47.1208 4.77143 47.7125 4.92381 48.1656 5.22857C48.6279 5.52381 48.859 5.9 48.859 6.35714V11.6286H47.056V6.35714C46.9913 6.33809 46.8988 6.32381 46.7786 6.31429C46.6584 6.29524 46.529 6.28571 46.3903 6.28571C45.9095 6.28571 45.5489 6.43333 45.3085 6.72857C45.0681 7.02381 44.9479 7.50952 44.9479 8.18571C44.9479 8.79524 45.0542 9.27143 45.2669 9.61428C45.4888 9.94762 45.8124 10.1143 46.2377 10.1143H48.859V11.6286H46.0574ZM47.167 14.9C46.9358 14.9 46.7417 14.8476 46.5845 14.7429C46.4273 14.6381 46.3071 14.5143 46.2239 14.3714C46.1499 14.2381 46.1129 14.1238 46.1129 14.0286C46.3071 13.8762 46.4735 13.7048 46.6122 13.5143C46.7509 13.3238 46.8572 13.0762 46.9312 12.7714C47.0144 12.4762 47.056 12.0952 47.056 11.6286V10.1143H48.859V11.6286C48.859 12.0476 48.8221 12.4524 48.7481 12.8429C48.6834 13.2333 48.5817 13.581 48.443 13.8857C48.3135 14.2 48.1425 14.4476 47.9298 14.6286C47.7171 14.8095 47.4629 14.9 47.167 14.9Z" fill="#F9620B"/>
<path d="M52.4372 11.6286V10.1143H53.8658V11.6286H52.4372ZM50.7452 14.9C50.514 14.9 50.3198 14.8476 50.1627 14.7429C50.0055 14.6381 49.8853 14.5143 49.802 14.3714C49.7281 14.2381 49.6911 14.1238 49.6911 14.0286C49.8853 13.8762 50.0517 13.7048 50.1904 13.5143C50.3291 13.3238 50.4354 13.0762 50.5094 12.7714C50.5926 12.4762 50.6342 12.0952 50.6342 11.6286V5.65714C50.6342 5.38095 50.7174 5.16667 50.8839 5.01429C51.0595 4.85238 51.2768 4.77143 51.5357 4.77143C51.8039 4.77143 52.0211 4.85238 52.1876 5.01429C52.354 5.16667 52.4372 5.38095 52.4372 5.65714V11.6286C52.4372 12.0476 52.4002 12.4524 52.3263 12.8429C52.2615 13.2333 52.1598 13.581 52.0211 13.8857C51.8917 14.2 51.7206 14.4476 51.508 14.6286C51.2953 14.8095 51.041 14.9 50.7452 14.9ZM53.8658 11.6286V10.1143C53.9675 10.1143 54.0368 10.1857 54.0738 10.3286C54.12 10.4619 54.1431 10.6429 54.1431 10.8714C54.1431 11.1 54.12 11.2857 54.0738 11.4286C54.0368 11.5619 53.9675 11.6286 53.8658 11.6286Z" fill="#F9620B"/>
<path d="M53.4537 11.6286V10.1143H57.2261C57.5405 10.1143 57.7809 10.0143 57.9473 9.81429C58.1138 9.61429 58.197 9.32381 58.197 8.94286V6.35714C58.1323 6.33809 58.0398 6.32381 57.9196 6.31429C57.7994 6.29524 57.67 6.28571 57.5313 6.28571C57.0505 6.28571 56.6899 6.43333 56.4495 6.72857C56.2091 7.02381 56.0889 7.50952 56.0889 8.18571C56.0889 8.79524 56.1952 9.25714 56.4078 9.57143C56.6298 9.88571 56.9534 10.0667 57.3787 10.1143L57.1984 11.6143C56.6621 11.5571 56.1721 11.4 55.7283 11.1429C55.2937 10.8762 54.9423 10.5 54.6742 10.0143C54.4153 9.51905 54.2858 8.90952 54.2858 8.18571C54.2858 7.10952 54.5771 6.27143 55.1596 5.67143C55.7514 5.07143 56.5419 4.77143 57.5313 4.77143C58.2617 4.77143 58.8535 4.92381 59.3065 5.22857C59.7688 5.52381 60 5.9 60 6.35714V8.94286C60 9.45714 59.8798 9.91905 59.6394 10.3286C59.4082 10.7286 59.0846 11.0476 58.6685 11.2857C58.2525 11.5143 57.7717 11.6286 57.2261 11.6286H53.4537ZM53.4537 11.6286C53.3612 11.6286 53.2919 11.5619 53.2456 11.4286C53.1994 11.2857 53.1763 11.1 53.1763 10.8714C53.1763 10.6429 53.1994 10.4619 53.2456 10.3286C53.2919 10.1857 53.3612 10.1143 53.4537 10.1143V11.6286ZM57.5451 3.84286C57.2585 3.84286 57.0135 3.74286 56.8101 3.54286C56.6159 3.33333 56.5188 3.09048 56.5188 2.81429C56.5188 2.52857 56.6159 2.28571 56.8101 2.08571C57.0135 1.88571 57.2585 1.78571 57.5451 1.78571C57.8133 1.78571 58.0444 1.88571 58.2386 2.08571C58.442 2.28571 58.5437 2.52857 58.5437 2.81429C58.5437 3.09048 58.442 3.33333 58.2386 3.54286C58.0444 3.74286 57.8133 3.84286 57.5451 3.84286Z" fill="#F9620B"/>
</svg>
