<svg width="40" height="40" viewBox="0 0 40 40" fill="none" xmlns="http://www.w3.org/2000/svg">
<g id="Capa_1">
<g id="Group">
<g id="Group_2">
<path id="Vector" d="M36.7087 12.4741C36.8554 12.3275 36.938 12.1286 36.938 11.9212C36.938 11.7137 36.8554 11.5148 36.7087 11.3683L32.548 7.21508C32.243 6.9107 31.7491 6.9107 31.4441 7.21508L29.305 9.35039C27.393 8.07086 25.2459 7.20586 22.9765 6.80203C23.6469 6.07906 24.0573 5.11227 24.0573 4.05148C24.0573 1.8175 22.2372 0 20 0C17.7627 0 15.9426 1.8175 15.9426 4.05148C15.9426 5.11219 16.3529 6.07906 17.0235 6.80203C14.754 7.20586 12.607 8.07086 10.695 9.35039L8.55584 7.21508C8.25084 6.9107 7.75693 6.9107 7.45193 7.21508L3.29131 11.3683C3.14451 11.5148 3.06201 11.7137 3.06201 11.9212C3.06201 12.1286 3.14451 12.3275 3.29131 12.4741L5.57045 14.7492C4.05193 17.3018 3.24178 20.2239 3.24178 23.2702C3.24178 27.7391 4.98506 31.9405 8.15061 35.1005C11.3158 38.26 15.524 40 20 40C24.476 40 28.6842 38.26 31.8493 35.1005C35.0148 31.9406 36.7581 27.7391 36.7581 23.2702C36.7581 20.2238 35.9479 17.3018 34.4294 14.7491L36.7087 12.4741ZM31.9961 8.87187L35.0508 11.9212L33.5497 13.4197C33.0395 12.7234 32.4719 12.0616 31.8493 11.4401C31.4414 11.033 31.0162 10.6494 30.5753 10.2901L31.9961 8.87187ZM20 1.5625C21.3756 1.5625 22.4948 2.67906 22.4948 4.05148C22.4948 5.1518 21.7754 6.08766 20.7812 6.41547V4.61C20.7812 4.17859 20.4315 3.82875 20 3.82875C19.5685 3.82875 19.2187 4.17859 19.2187 4.61V6.41547C18.2245 6.08766 17.5051 5.1518 17.5051 4.05148C17.5051 2.67906 18.6244 1.5625 20 1.5625ZM4.94912 11.9212L8.00389 8.87187L9.42467 10.2901C8.98381 10.6494 8.55857 11.0329 8.15068 11.4401C7.52803 12.0616 6.96045 12.7235 6.45029 13.4197L4.94912 11.9212ZM20 38.4375C11.621 38.4375 4.80428 31.6335 4.80428 23.2702C4.80428 14.907 11.621 8.10305 20 8.10305C28.379 8.10305 35.1957 14.907 35.1957 23.2703C35.1957 31.6336 28.3789 38.4375 20 38.4375Z" fill="#086A41"/>
</g>
<g id="Group_3">
<g id="Group_4">
<path id="Vector_2" d="M20 35.2015C26.6012 35.2015 31.9526 29.8597 31.9526 23.2702C31.9526 16.6807 26.6012 11.3389 20 11.3389C13.3987 11.3389 8.0473 16.6807 8.0473 23.2702C8.0473 29.8597 13.3987 35.2015 20 35.2015Z" fill="#C6F7E2"/>
</g>
<g id="Group_5">
<g id="Group_6">
<path id="Vector_3" d="M19.9999 15.2987C19.5685 15.2987 19.2187 14.9489 19.2187 14.5175V14.251C19.2187 13.8195 19.5685 13.4697 19.9999 13.4697C20.4314 13.4697 20.7812 13.8195 20.7812 14.251V14.5175C20.7812 14.9489 20.4314 15.2987 19.9999 15.2987Z" fill="#086A41"/>
</g>
<g id="Group_7">
<path id="Vector_4" d="M19.9999 33.0707C19.5685 33.0707 19.2187 32.7208 19.2187 32.2894V32.0229C19.2187 31.5915 19.5685 31.2417 19.9999 31.2417C20.4314 31.2417 20.7812 31.5915 20.7812 32.0229V32.2894C20.7812 32.7208 20.4314 33.0707 19.9999 33.0707Z" fill="#086A41"/>
</g>
</g>
<g id="Group_8">
<g id="Group_9">
<path id="Vector_5" d="M29.0192 24.0514H28.7526C28.3211 24.0514 27.9714 23.7015 27.9714 23.2701C27.9714 22.8387 28.3211 22.4889 28.7526 22.4889H29.0192C29.4507 22.4889 29.8004 22.8387 29.8004 23.2701C29.8004 23.7016 29.4507 24.0514 29.0192 24.0514Z" fill="#086A41"/>
</g>
<g id="Group_10">
<path id="Vector_6" d="M11.2472 24.0514H10.9807C10.5492 24.0514 10.1994 23.7015 10.1994 23.2701C10.1994 22.8387 10.5492 22.4889 10.9807 22.4889H11.2472C11.6787 22.4889 12.0285 22.8387 12.0285 23.2701C12.0285 23.7016 11.6787 24.0514 11.2472 24.0514Z" fill="#086A41"/>
</g>
</g>
<g id="Group_11">
<g id="Group_12">
<path id="Vector_7" d="M26.1891 17.8624C25.9891 17.8624 25.7891 17.7861 25.6366 17.6336C25.3316 17.3285 25.3316 16.8338 25.6366 16.5286L25.8251 16.3402C26.1302 16.0352 26.6248 16.0352 26.93 16.3402C27.2351 16.6453 27.2351 17.14 26.93 17.4451L26.7416 17.6336C26.5889 17.7861 26.389 17.8624 26.1891 17.8624Z" fill="#086A41"/>
</g>
<g id="Group_13">
<path id="Vector_8" d="M13.6224 30.429C13.4224 30.429 13.2224 30.3527 13.0699 30.2002C12.7649 29.8951 12.7649 29.4004 13.0699 29.0953L13.2584 28.9069C13.5634 28.6019 14.0581 28.6019 14.3633 28.9069C14.6684 29.2119 14.6684 29.7066 14.3633 30.0118L14.1749 30.2002C14.0223 30.3528 13.8223 30.429 13.6224 30.429Z" fill="#086A41"/>
</g>
</g>
<g id="Group_14">
<g id="Group_15">
<path id="Vector_9" d="M26.3775 30.429C26.1776 30.429 25.9776 30.3527 25.8251 30.2002L25.6366 30.0118C25.3316 29.7067 25.3316 29.212 25.6366 28.9069C25.9417 28.6019 26.4364 28.6019 26.7416 28.9069L26.93 29.0953C27.2351 29.4004 27.2351 29.8951 26.93 30.2002C26.7773 30.3528 26.5774 30.429 26.3775 30.429Z" fill="#086A41"/>
</g>
<g id="Group_16">
<path id="Vector_10" d="M13.8108 17.8624C13.6109 17.8624 13.4109 17.7861 13.2584 17.6336L13.0699 17.4451C12.7649 17.14 12.7649 16.6454 13.0699 16.3402C13.375 16.0352 13.8697 16.0352 14.1749 16.3402L14.3633 16.5286C14.6684 16.8337 14.6684 17.3284 14.3633 17.6336C14.2107 17.7861 14.0107 17.8624 13.8108 17.8624Z" fill="#086A41"/>
</g>
</g>
<path id="Vector_11" d="M24.6726 22.3719H22.6977C22.437 21.5124 21.7578 20.8332 20.8983 20.5725V18.1266C20.8983 17.6951 20.5485 17.3453 20.117 17.3453C19.6855 17.3453 19.3358 17.6951 19.3358 18.1266V20.5725C18.2289 20.9082 17.4208 21.9381 17.4208 23.1531C17.4208 24.6398 18.6304 25.8493 20.117 25.8493C21.3321 25.8493 22.362 25.0414 22.6977 23.9344H24.6726C25.104 23.9344 25.4538 23.5846 25.4538 23.1531C25.4538 22.7217 25.104 22.3719 24.6726 22.3719ZM20.117 24.2868C19.4919 24.2868 18.9833 23.7782 18.9833 23.1531C18.9833 22.5281 19.4919 22.0196 20.117 22.0196C20.7421 22.0196 21.2507 22.5281 21.2507 23.1531C21.2506 23.7782 20.7421 24.2868 20.117 24.2868Z" fill="#086A41"/>
</g>
</g>
</g>
</svg>
