<svg width="40" height="40" viewBox="0 0 40 40" fill="none" xmlns="http://www.w3.org/2000/svg">
<g id="Capa_1" clip-path="url(#clip0_35_2377)">
<g id="Group">
<g id="Group_2">
<path id="Vector" d="M22.835 0.19812C17.6461 0.19812 12.995 2.49857 9.84741 6.13436C10.2868 6.35648 10.699 6.65149 11.0661 7.01962L13.2795 9.2389C15.5791 6.53648 19.0066 4.82199 22.835 4.82199C29.7592 4.82199 35.3723 10.4303 35.3723 17.3486C35.3723 21.1886 33.6429 24.625 30.92 26.9229L32.6979 28.7056C33.2253 29.2343 33.6021 29.8572 33.8286 30.5205C37.6003 27.3745 40.0001 22.6416 40.0001 17.3486C40.0001 7.87668 32.315 0.19812 22.835 0.19812Z" fill="#C6F7E2"/>
</g>
<g id="Group_3">
<path id="Vector_2" d="M33.251 28.1539L30.6985 25.5945C29.6891 24.5825 28.3479 24.0252 26.9218 24.0252C25.4957 24.0252 24.1544 24.5825 23.145 25.5947L20.8393 27.9079L11.8633 18.9114L14.1719 16.5952C16.2527 14.5087 16.2527 11.1139 14.1719 9.02751L11.6193 6.46807C10.5763 5.42227 9.19033 4.84631 7.71654 4.84631C6.24275 4.84631 4.85678 5.42227 3.81378 6.46807C3.79238 6.48956 3.77222 6.51222 3.75347 6.53604L2.50367 8.12116C1.31067 9.63425 0.504638 11.4336 0.172598 13.3247C-0.162254 15.232 -0.00795325 17.1983 0.618703 19.0111C1.07278 20.3246 1.64389 21.3323 2.31609 22.0064L17.7673 37.4951C18.3002 38.0295 19.0483 38.5045 19.9908 38.907C21.3973 39.5077 22.8909 39.802 24.3824 39.802C26.8658 39.8019 29.3426 38.9856 31.3963 37.408L33.1737 36.0424C33.2009 36.0216 33.2267 35.9988 33.2509 35.9745C35.4014 33.8184 35.4014 30.3101 33.251 28.1539ZM32.1792 34.836L30.4444 36.1687C27.6045 38.3505 23.834 38.849 20.6044 37.47C19.8469 37.1464 19.2646 36.7836 18.8736 36.3916L3.42237 20.9028C2.91829 20.3973 2.4718 19.5891 2.09554 18.5005C0.991291 15.3062 1.60256 11.7877 3.73074 9.08853L4.95108 7.54076C5.69508 6.8105 6.6755 6.40885 7.71654 6.40885C8.77211 6.40885 9.76519 6.82175 10.5129 7.57146L13.0654 10.1309C14.5394 11.6089 14.5394 14.0138 13.0653 15.492L10.2065 18.3601C9.90253 18.6651 9.90261 19.1586 10.2068 19.4635L20.2864 29.5662C20.433 29.7131 20.6321 29.7957 20.8396 29.7956C21.0472 29.7955 21.2463 29.7129 21.3927 29.5659L24.2513 26.698C24.9653 25.982 25.9136 25.5878 26.9216 25.5878C27.9296 25.5878 28.8779 25.982 29.5919 26.698L32.1445 29.2574C33.6766 30.7935 33.6881 33.2856 32.1792 34.836Z" fill="#086A41"/>
<g id="Group_4">
<path id="Vector_3" d="M28.204 17.3208H28.1165C28.1259 15.6766 28.1308 13.9194 28.1105 13.6751C28.0647 13.1238 27.7337 12.6745 27.2671 12.5305C26.8043 12.3877 26.313 12.5673 25.9528 13.0112C25.5638 13.4905 23.7683 16.7411 23.2273 17.7259C23.0943 17.9679 23.099 18.2621 23.2396 18.4999C23.3802 18.7376 23.6359 18.8833 23.912 18.8833H26.5434C26.5402 19.3215 26.5368 19.7416 26.5336 20.1212C26.5299 20.5527 26.8767 20.9054 27.3082 20.9091C27.3104 20.9092 27.3128 20.9092 27.315 20.9092C27.7433 20.9092 28.0925 20.5638 28.0961 20.1346C28.0981 19.9003 28.1018 19.4466 28.1061 18.8833H28.204C28.6355 18.8833 28.9852 18.5336 28.9852 18.1021C28.9853 17.6706 28.6354 17.3208 28.204 17.3208ZM26.5536 17.3208H25.2369C25.7253 16.4437 26.2014 15.6022 26.5623 14.9814C26.562 15.6225 26.5586 16.4563 26.5536 17.3208Z" fill="#086A41"/>
<path id="Vector_4" d="M22.067 19.5646C21.3799 19.5732 20.651 19.5789 20.0465 19.5801C20.426 19.0705 20.9539 18.3463 21.6677 17.3221C22.1046 16.6951 22.3896 16.1026 22.5146 15.561C22.5439 15.4373 22.5683 15.2016 22.5684 15.1198C22.5698 13.7206 21.4334 12.5823 20.0382 12.5823C18.8317 12.5823 17.7875 13.4432 17.5554 14.6295C17.4726 15.053 17.7487 15.4634 18.1723 15.5462C18.5956 15.6289 19.0061 15.3528 19.0889 14.9294C19.1778 14.4747 19.5771 14.1448 20.0382 14.1448C20.5577 14.1448 20.9828 14.5594 21.0049 15.0775L20.9837 15.2444C20.8984 15.5833 20.6974 15.9816 20.3857 16.4288C19.3031 17.9822 18.657 18.8317 18.3101 19.2881C17.8812 19.8519 17.6855 20.1093 17.8187 20.5413C17.8969 20.7951 18.0891 20.9901 18.3459 21.076C18.4504 21.111 18.5505 21.1445 19.8794 21.1445C20.401 21.1445 21.112 21.1394 22.0866 21.127C22.518 21.1216 22.8634 20.7674 22.8579 20.336C22.8526 19.9045 22.4971 19.5602 22.067 19.5646Z" fill="#086A41"/>
</g>
</g>
</g>
</g>
<defs>
<clipPath id="clip0_35_2377">
<rect width="40" height="40" fill="white"/>
</clipPath>
</defs>
</svg>
