<svg width="40" height="40" viewBox="0 0 40 40" fill="none" xmlns="http://www.w3.org/2000/svg">
<g id="Capa_1">
<g id="Group">
<g id="Group_2">
<path id="Vector" d="M39.2187 26.5901H39.1951V22.0419C39.1948 21.9002 39.1665 21.819 39.1386 21.7497L36.3066 14.2582C36.1918 13.9543 35.9008 13.7532 35.5758 13.7532H30.9546V8.85662C30.9546 7.68287 30.0003 6.72803 28.8273 6.72803H15.0623C15.3133 7.22264 15.5169 7.74545 15.6672 8.29053H28.8273C29.1387 8.29053 29.3921 8.54451 29.3921 8.85662V26.59H7.05468V18.0622C6.51491 17.9764 5.99241 17.8388 5.49218 17.6547V26.5901H5.46851C5.03702 26.5901 4.68726 26.9398 4.68726 27.3713V32.1768C4.68726 32.6083 5.03702 32.958 5.46851 32.958H9.09405C9.03702 33.2296 9.00702 33.5111 9.00702 33.7994C9.00702 36.0436 10.8237 37.8694 13.0569 37.8694C15.2899 37.8694 17.1067 36.0436 17.1067 33.7994C17.1067 33.5111 17.0767 33.2296 17.0197 32.958H28.5228C28.4658 33.2296 28.4358 33.5111 28.4358 33.7994C28.4358 36.0436 30.2526 37.8694 32.4857 37.8694C34.7188 37.8694 36.5355 36.0436 36.5355 33.7994C36.5355 33.5111 36.5055 33.2296 36.4485 32.958H39.2187C39.6501 32.958 40 32.6083 40 32.1768V27.3713C40 26.9399 39.6501 26.5901 39.2187 26.5901ZM30.9548 15.3158H35.036L37.2833 21.2607H30.9548V15.3158ZM30.9548 22.8232H37.6326V26.5897H30.9548V22.8232ZM13.0569 36.3069C11.6854 36.3069 10.5696 35.1821 10.5696 33.7994C10.5696 32.4169 11.6855 31.292 13.0569 31.292C14.4284 31.292 15.5443 32.4168 15.5443 33.7994C15.5443 35.1821 14.4285 36.3069 13.0569 36.3069ZM32.4857 36.3069C31.1141 36.3069 29.9983 35.1821 29.9983 33.7994C29.9983 32.4169 31.1141 31.292 32.4857 31.292C33.8573 31.292 34.973 32.4168 34.973 33.7994C34.973 35.1821 33.8573 36.3069 32.4857 36.3069ZM38.4375 31.3955H35.7625C35.759 31.3955 35.7555 31.3956 35.7519 31.3957C35.0143 30.3861 33.8249 29.7296 32.4858 29.7296C31.1467 29.7296 29.9573 30.3861 29.2197 31.3956H16.3343C16.3305 31.3956 16.3269 31.3957 16.3231 31.3958C15.5854 30.3862 14.396 29.7297 13.0569 29.7297C11.7179 29.7297 10.5286 30.3862 9.79085 31.3957H6.24983V28.1527H38.4375V31.3955Z" fill="#086A41"/>
</g>
<g id="Group_3">
<path id="Vector_2" d="M8.37555 18.9475C13.0012 18.9475 16.7511 15.1829 16.7511 10.539C16.7511 5.89511 13.0012 2.13049 8.37555 2.13049C3.74986 2.13049 0 5.89511 0 10.539C0 15.1829 3.74986 18.9475 8.37555 18.9475Z" fill="#C6F7E2"/>
<path id="Vector_3" d="M9.83272 11.6859H8.37561C7.94413 11.6859 7.59436 11.3362 7.59436 10.9047V8.46655C7.59436 8.03507 7.94413 7.6853 8.37561 7.6853C8.80709 7.6853 9.15686 8.03507 9.15686 8.46655V10.1234H9.83272C10.2642 10.1234 10.614 10.4732 10.614 10.9047C10.614 11.3362 10.2642 11.6859 9.83272 11.6859Z" fill="#086A41"/>
</g>
</g>
</g>
</svg>
