<svg width="40" height="40" viewBox="0 0 40 40" fill="none" xmlns="http://www.w3.org/2000/svg">
<g id="Capa_1" clip-path="url(#clip0_35_2422)">
<g id="Group">
<g id="Group_2">
<path id="Vector" d="M20 6.45605C12.5318 6.45605 6.45605 12.5318 6.45605 20C6.45605 27.4682 12.5318 33.544 20 33.544C27.4682 33.544 33.544 27.4682 33.544 20C33.544 12.5318 27.4682 6.45605 20 6.45605ZM20 31.9815C13.3934 31.9815 8.01855 26.6067 8.01855 20C8.01855 13.3934 13.3934 8.01855 20 8.01855C26.6067 8.01855 31.9815 13.3934 31.9815 20C31.9815 26.6067 26.6066 31.9815 20 31.9815Z" fill="#086A41"/>
<path id="Vector_2" d="M38.9326 22.6858C39.4329 21.908 40 21.0264 40 20C40 18.9736 39.4329 18.092 38.9326 17.3142C38.5977 16.7936 38.2813 16.3019 38.1798 15.856C38.0716 15.3805 38.144 14.7826 38.2206 14.1497C38.3352 13.2029 38.4538 12.2239 38.0227 11.3317C37.5841 10.4238 36.6969 9.87984 35.9141 9.39984C35.3777 9.07101 34.871 8.76031 34.5763 8.39171C34.2785 8.01929 34.0862 7.45437 33.8826 6.85632C33.5879 5.99078 33.254 5.00984 32.4703 4.38499C31.6907 3.76343 30.6616 3.65562 29.7536 3.56046C29.1217 3.49429 28.5248 3.43179 28.0903 3.22242C27.6706 3.02023 27.2576 2.59937 26.8203 2.15382C26.1746 1.49585 25.4427 0.750073 24.45 0.524682C23.4943 0.307807 22.5713 0.638901 21.6788 0.959292C21.0718 1.17703 20.4984 1.38281 20 1.38281C19.5016 1.38281 18.9282 1.17703 18.3212 0.959213C17.4287 0.638901 16.5059 0.307729 15.55 0.524604C14.5573 0.749917 13.8254 1.4957 13.1797 2.15374C12.7424 2.59929 12.3295 3.02015 11.9098 3.22234C11.4752 3.43164 10.8784 3.49414 10.2465 3.56039C9.33844 3.65554 8.3093 3.76335 7.52977 4.38492C6.74609 5.00976 6.41211 5.9907 6.1175 6.85617C5.91391 7.45429 5.72156 8.01921 5.42375 8.39163C5.12906 8.76023 4.62234 9.07085 4.08594 9.39976C3.3032 9.87976 2.41602 10.4237 1.97734 11.3316C1.54625 12.2239 1.66477 13.2029 1.77937 14.1497C1.85602 14.7826 1.92844 15.3805 1.82016 15.856C1.71867 16.3019 1.40234 16.7936 1.06742 17.3142C0.567109 18.092 0 18.9736 0 20C0 21.0264 0.567109 21.908 1.06742 22.6857C1.40234 23.2064 1.71867 23.6981 1.82016 24.144C1.92844 24.6195 1.85602 25.2173 1.77937 25.8503C1.66477 26.7971 1.54617 27.7761 1.97727 28.6683C2.41594 29.5762 3.30312 30.1202 4.08594 30.6001C4.62234 30.9291 5.12898 31.2397 5.42367 31.6083C5.72148 31.9807 5.91383 32.5456 6.11742 33.1437C6.41203 34.0092 6.74602 34.9901 7.52969 35.615C8.3093 36.2366 9.33844 36.3444 10.2464 36.4395C10.8783 36.5057 11.4752 36.5682 11.9097 36.7776C12.3294 36.9798 12.7424 37.4006 13.1797 37.8462C13.8254 38.5041 14.5573 39.2499 15.55 39.4753C16.5059 39.6923 17.4287 39.3612 18.3212 39.0407C18.9283 38.8229 19.5016 38.6171 20 38.6171C20.4984 38.6171 21.0718 38.8229 21.6788 39.0407C22.372 39.2895 23.0834 39.5448 23.8145 39.5448C24.0247 39.5448 24.2366 39.5237 24.45 39.4753C25.4427 39.25 26.1746 38.5042 26.8203 37.8462C27.2576 37.4006 27.6705 36.9798 28.0902 36.7776C28.5248 36.5683 29.1216 36.5058 29.7535 36.4396C30.6616 36.3444 31.6906 36.2366 32.4702 35.6151C33.2539 34.9902 33.5878 34.0093 33.8825 33.1438C34.0861 32.5457 34.2784 31.9808 34.5762 31.6084C34.8709 31.2398 35.3777 30.9291 35.9141 30.6002C36.6968 30.1202 37.584 29.5762 38.0227 28.6684C38.4538 27.7761 38.3352 26.7971 38.2206 25.8503C38.144 25.2173 38.0716 24.6195 38.1798 24.144C38.2812 23.6981 38.5977 23.2064 38.9326 22.6858ZM37.6185 21.8404C37.2253 22.4516 36.8187 23.0837 36.6563 23.7971C36.4877 24.5376 36.5801 25.3005 36.6695 26.0381C36.761 26.7945 36.8475 27.509 36.6158 27.9886C36.3765 28.4837 35.7552 28.8648 35.0973 29.2681C34.47 29.6527 33.8213 30.0505 33.3559 30.6324C32.8873 31.2184 32.6413 31.9411 32.4034 32.6401C32.1559 33.367 31.9221 34.0536 31.4961 34.3933C31.0737 34.7301 30.3533 34.8055 29.5907 34.8855C28.8537 34.9626 28.0916 35.0425 27.4121 35.3698C26.7465 35.6905 26.217 36.23 25.705 36.7517C25.162 37.3051 24.649 37.8277 24.1041 37.9515C23.5928 38.0673 22.9194 37.8259 22.2064 37.57C21.5003 37.3166 20.7702 37.0545 19.9998 37.0545C19.2295 37.0545 18.4994 37.3166 17.7933 37.57C17.0803 37.8259 16.4069 38.0675 15.8956 37.9515C15.3507 37.8277 14.8377 37.3051 14.2947 36.7517C13.7827 36.23 13.2532 35.6905 12.5876 35.3698C11.9081 35.0425 11.146 34.9627 10.409 34.8855C9.64633 34.8056 8.92602 34.7301 8.50359 34.3933C8.07758 34.0536 7.84383 33.367 7.59641 32.6401C7.35844 31.9412 7.11234 31.2184 6.64383 30.6324C6.17844 30.0505 5.52984 29.6528 4.9025 29.2681C4.24461 28.8648 3.6232 28.4838 3.38398 27.9886C3.15227 27.509 3.23875 26.7945 3.33031 26.0381C3.41969 25.3005 3.51203 24.5376 3.34344 23.7971C3.18102 23.0837 2.77445 22.4516 2.38125 21.8403C1.96031 21.1857 1.5625 20.5672 1.5625 20C1.5625 19.4327 1.96031 18.8143 2.38148 18.1595C2.77469 17.5483 3.18125 16.9162 3.34367 16.2028C3.51227 15.4623 3.41992 14.6994 3.33055 13.9618C3.23898 13.2054 3.1525 12.4909 3.38422 12.0113C3.62352 11.5162 4.24484 11.1351 4.90273 10.7318C5.53 10.3472 6.17867 9.94945 6.64406 9.36749C7.11258 8.78163 7.35867 8.05874 7.59664 7.35976C7.84414 6.63288 8.07789 5.94632 8.50391 5.60664C8.92641 5.26976 9.64672 5.19437 10.4094 5.11445C11.1464 5.03726 11.9084 4.95742 12.588 4.63015C13.2536 4.30953 13.783 3.76999 14.295 3.24828C14.838 2.69492 15.351 2.17226 15.8959 2.04851C16.407 1.93257 17.0806 2.17414 17.7936 2.42999C18.4995 2.68328 19.2297 2.94531 20 2.94531C20.7703 2.94531 21.5005 2.68328 22.2066 2.42984C22.9195 2.17406 23.5928 1.93242 24.1042 2.04835C24.6491 2.17203 25.1621 2.69476 25.7052 3.24812C26.2172 3.76984 26.7466 4.30937 27.4123 4.62999C28.0917 4.95726 28.8538 5.0371 29.5909 5.11437C30.3535 5.19429 31.0738 5.26976 31.4963 5.60656C31.9223 5.94624 32.1561 6.63281 32.4035 7.35976C32.6415 8.05874 32.8876 8.78156 33.3561 9.36749C33.8215 9.94945 34.4701 10.3472 35.0974 10.7318C35.7553 11.1351 36.3767 11.5161 36.6159 12.0113C36.8477 12.4909 36.7612 13.2054 36.6696 13.9618C36.5802 14.6994 36.4879 15.4623 36.6565 16.2028C36.8189 16.9162 37.2255 17.5483 37.6187 18.1595C38.0397 18.8143 38.4375 19.4327 38.4375 20C38.4375 20.5672 38.0397 21.1857 37.6185 21.8404Z" fill="#086A41"/>
</g>
<g id="Group_3">
<path id="Vector_3" d="M20 25.2841L15.5342 26.8721L15.6645 22.1342L12.7743 18.3778L17.3205 17.0376L20 13.1279L22.6794 17.0376L27.2257 18.3778L24.3355 22.1342L24.4658 26.8721L20 25.2841Z" fill="#C6F7E2"/>
</g>
</g>
</g>
<defs>
<clipPath id="clip0_35_2422">
<rect width="40" height="40" fill="white"/>
</clipPath>
</defs>
</svg>
