<svg width="24" height="25" viewBox="0 0 24 25" fill="none" xmlns="http://www.w3.org/2000/svg">
<g id="fluent:vehicle-bicycle-24-regular">
<path id="Vector" d="M12.75 3.5C12.5511 3.5 12.3603 3.57902 12.2197 3.71967C12.079 3.86032 12 4.05109 12 4.25C12 4.44891 12.079 4.63968 12.2197 4.78033C12.3603 4.92098 12.5511 5 12.75 5H14.177L15.132 8.5H8.49999V6.25C8.49999 6.05109 8.42097 5.86032 8.28032 5.71967C8.13966 5.57902 7.9489 5.5 7.74999 5.5H4.74999C4.55107 5.5 4.36031 5.57902 4.21966 5.71967C4.079 5.86032 3.99999 6.05109 3.99999 6.25C3.99999 6.44891 4.079 6.63968 4.21966 6.78033C4.36031 6.92098 4.55107 7 4.74999 7H6.99999V9.188L6.69799 11C5.85183 11.0104 5.02802 11.2731 4.33209 11.7545C3.63617 12.2359 3.0998 12.9142 2.7917 13.7023C2.4836 14.4905 2.4178 15.3526 2.60272 16.1784C2.78763 17.0042 3.21486 17.7559 3.82966 18.3374C4.44446 18.9189 5.21885 19.3036 6.05364 19.4422C6.88842 19.5809 7.7456 19.4672 8.51536 19.1157C9.28513 18.7642 9.93244 18.1909 10.3744 17.4692C10.8163 16.7476 11.0328 15.9104 10.996 15.065L15.652 10.408L15.926 11.411C14.9666 11.8664 14.2125 12.6646 13.8121 13.6482C13.4117 14.6319 13.3942 15.7298 13.7628 16.7257C14.1315 17.7217 14.8597 18.5435 15.804 19.0294C16.7484 19.5154 17.8404 19.6301 18.8651 19.3511C19.8898 19.0721 20.7729 18.4195 21.3406 17.5219C21.9082 16.6243 22.1192 15.5468 21.932 14.5014C21.7449 13.456 21.1731 12.5185 20.3293 11.8737C19.4855 11.2288 18.4308 10.9232 17.373 11.017L15.473 4.053C15.4298 3.8943 15.3356 3.7542 15.205 3.65428C15.0743 3.55435 14.9145 3.50015 14.75 3.5H12.75ZM16.33 12.894L17.026 15.447C17.0519 15.5421 17.0962 15.6311 17.1565 15.7091C17.2168 15.787 17.2918 15.8523 17.3773 15.9012C17.4629 15.9502 17.5572 15.9818 17.6549 15.9943C17.7527 16.0068 17.8519 15.9999 17.947 15.974C18.0421 15.9481 18.1311 15.9038 18.2091 15.8435C18.287 15.7832 18.3523 15.7082 18.4012 15.6226C18.4502 15.5371 18.4818 15.4428 18.4943 15.3451C18.5067 15.2473 18.4999 15.1481 18.474 15.053L17.777 12.5C18.4407 12.5069 19.0796 12.7535 19.5757 13.1945C20.0718 13.6356 20.3916 14.2411 20.4762 14.8995C20.5608 15.5578 20.4044 16.2246 20.0358 16.7766C19.6673 17.3287 19.1115 17.7289 18.4711 17.9032C17.8306 18.0776 17.1487 18.0145 16.5512 17.7255C15.9536 17.4364 15.4808 16.941 15.2199 16.3307C14.959 15.7203 14.9277 15.0362 15.1317 14.4046C15.3358 13.7729 15.7614 13.2364 16.33 12.894ZM10.565 13.374C10.0756 12.3818 9.21964 11.6187 8.17799 11.246L8.38499 10H13.939L10.565 13.374ZM7.92499 12.763C8.63499 13.099 9.17899 13.731 9.39599 14.5H7.63599L7.92499 12.763ZM6.44499 12.517L6.00999 15.127C5.99213 15.2344 5.99788 15.3445 6.02684 15.4495C6.05581 15.5545 6.10729 15.6519 6.17771 15.735C6.24814 15.818 6.33581 15.8848 6.43464 15.9306C6.53346 15.9763 6.64107 16 6.74999 16H9.39599C9.26019 16.4801 8.99636 16.9143 8.63276 17.256C8.26916 17.5977 7.81947 17.834 7.33184 17.9398C6.84422 18.0455 6.33701 18.0167 5.86453 17.8563C5.39205 17.6959 4.97209 17.41 4.6496 17.0293C4.32712 16.6485 4.11427 16.1872 4.03382 15.6948C3.95338 15.2024 4.00838 14.6973 4.19293 14.2337C4.37749 13.7702 4.68465 13.3655 5.08153 13.0631C5.4784 12.7607 5.94906 12.5719 6.44499 12.517Z" fill="#4E4E4E"/>
</g>
</svg>
