<svg width="20" height="21" viewBox="0 0 20 21" fill="none" xmlns="http://www.w3.org/2000/svg">
<g id="icon-park-outline:foundation-makeup">
<path id="Vector" d="M7.50002 5.50008H11.6667M7.50002 5.50008V7.58341H11.6667V5.50008M7.50002 5.50008V4.25008C7.50002 3.00008 8.75002 2.16675 10 2.16675H14.5834C14.5834 2.16675 11.6667 3.00008 11.6667 4.66675V5.50008M5.41669 8.41675C5.41669 8.19573 5.50448 7.98377 5.66076 7.82749C5.81705 7.67121 6.02901 7.58341 6.25002 7.58341H12.9167C13.1377 7.58341 13.3497 7.67121 13.5059 7.82749C13.6622 7.98377 13.75 8.19573 13.75 8.41675V16.3334C13.75 16.3334 13.75 18.8334 11.25 18.8334H7.91669C5.41669 18.8334 5.41669 16.3334 5.41669 16.3334V8.41675Z" stroke="#4E4E4E" stroke-width="1.5" stroke-linecap="round" stroke-linejoin="round"/>
</g>
</svg>
