<svg width="98" height="20" viewBox="0 0 98 20" fill="none" xmlns="http://www.w3.org/2000/svg">
<g id="PaniMall">
<path d="M0 19.6977V2.01511H10.3241C11.524 2.01511 12.4989 2.2754 13.2488 2.79597C14.0154 3.29975 14.5737 3.94626 14.9237 4.73552C15.2903 5.50798 15.4486 6.34761 15.3986 7.25441C15.3653 8.14442 15.1486 8.98405 14.7487 9.7733C14.3654 10.5458 13.7988 11.1923 13.0488 11.7128C12.2989 12.2166 11.3906 12.4685 10.3241 12.4685H4.59959V17.9849C4.59959 18.4551 4.43293 18.8581 4.09963 19.194C3.76633 19.5298 3.36636 19.6977 2.89974 19.6977H0ZM4.59959 2.56927V11.738H7.24935C7.98261 11.738 8.60756 11.5113 9.12418 11.0579C9.6408 10.6045 10.0408 10.042 10.3241 9.37028C10.6074 8.68178 10.7574 7.94291 10.774 7.15365C10.8074 6.3644 10.699 5.63392 10.4491 4.96222C10.2157 4.27372 9.83245 3.70277 9.29916 3.24937C8.76588 2.79597 8.08261 2.56927 7.24935 2.56927H4.59959Z" fill="#009657"/>
<path d="M16.0392 16.1713C16.0558 15.3484 16.2142 14.7019 16.5141 14.2317C16.8141 13.7448 17.1891 13.3669 17.639 13.0982C18.089 12.8296 18.5889 12.6448 19.1389 12.5441C19.7055 12.4265 20.2471 12.3174 20.7638 12.2166C21.2804 12.1159 21.747 11.9983 22.1636 11.864C22.5803 11.7128 22.8886 11.4694 23.0885 11.1335C23.0885 10.7137 23.0885 10.2771 23.0885 9.82368C23.0885 9.35348 23.0302 8.93367 22.9136 8.56423C22.8136 8.178 22.6303 7.85894 22.3636 7.60705C22.097 7.35516 21.7053 7.22922 21.1887 7.22922C21.0221 7.22922 20.8887 7.23762 20.7888 7.25441C20.2555 7.32158 19.8638 7.47271 19.6139 7.70781C19.3805 7.92611 19.2556 8.16121 19.2389 8.4131C19.2222 8.66499 19.3056 8.89169 19.4889 9.0932C19.6889 9.27792 19.9638 9.37028 20.3138 9.37028C20.5138 9.37028 20.7054 9.33669 20.8887 9.26952C20.9387 9.72292 20.9054 10.1175 20.7888 10.4534C20.6721 10.7893 20.4971 11.0747 20.2638 11.3098C20.0472 11.5281 19.7888 11.6961 19.4889 11.8136C19.2056 11.9312 18.9139 11.9899 18.6139 11.9899C18.1307 11.9899 17.689 11.8472 17.2891 11.5617C16.8891 11.2594 16.6641 10.8144 16.6141 10.2267C16.5641 9.57179 16.7058 9.01763 17.0391 8.56423C17.3724 8.11083 17.8057 7.74979 18.339 7.48111C18.8889 7.19563 19.4722 6.99412 20.0888 6.87657C20.7221 6.74223 21.297 6.67506 21.8137 6.67506C22.5136 6.67506 23.1885 6.73384 23.8385 6.85139C24.5051 6.96893 25.0884 7.17884 25.5883 7.48111C26.1049 7.78338 26.5132 8.19479 26.8132 8.71537C27.1298 9.23594 27.2882 9.89924 27.2882 10.7053V14.6348L30.0629 12.1662V7.10327H32.5127C33.196 7.10327 33.6459 7.20403 33.8626 7.40554C34.0792 7.60705 34.2042 7.91772 34.2375 8.33753V8.58942C34.8708 7.9513 35.5708 7.47271 36.3374 7.15365C37.1206 6.8178 37.8789 6.64987 38.6121 6.64987C39.4954 6.64987 40.2537 6.91856 40.8869 7.45592C41.5369 7.99328 41.8619 8.84971 41.8619 10.0252V19.6474H39.4871C38.7371 19.6474 38.2455 19.513 38.0122 19.2443C37.7789 18.9589 37.6622 18.4803 37.6622 17.8086V10.6549C37.6622 10 37.5122 9.48783 37.2123 9.11839C36.9123 8.74895 36.529 8.56423 36.0624 8.56423C35.7791 8.56423 35.4791 8.6398 35.1625 8.79093C34.8625 8.92527 34.5542 9.15197 34.2375 9.47103C33.5376 10.0756 32.8377 10.6801 32.1377 11.2846C31.4545 11.8892 30.7629 12.4937 30.0629 13.0982C28.913 14.1058 27.7798 15.0966 26.6632 16.0705C25.5467 17.0445 24.4134 18.0353 23.2635 19.0428C22.8136 19.3787 22.3303 19.6222 21.8137 19.7733C21.297 19.9244 20.7721 20 20.2388 20C19.6889 20 19.1556 19.916 18.6389 19.7481C18.139 19.5802 17.689 19.3367 17.2891 19.0176C16.9058 18.6818 16.5975 18.2788 16.3642 17.8086C16.1475 17.3216 16.0392 16.7758 16.0392 16.1713ZM30.0629 13.9547L31.8878 12.3929C32.2377 12.0739 32.6127 11.9144 33.0126 11.9144C33.346 11.9144 33.6293 12.0403 33.8626 12.2922C34.1126 12.5273 34.2375 12.8967 34.2375 13.4005V19.6474H31.8878C31.1378 19.6474 30.6462 19.513 30.4129 19.2443C30.1796 18.9589 30.0629 18.4803 30.0629 17.8086V13.9547ZM20.3138 16.1209C20.3138 16.44 20.3471 16.759 20.4138 17.0781C20.4971 17.3804 20.6138 17.6574 20.7638 17.9093C20.9137 18.1444 21.0887 18.3375 21.2887 18.4887C21.5054 18.6398 21.747 18.7154 22.0136 18.7154C22.3636 18.7154 22.7302 18.581 23.1135 18.3123V11.7884C22.8302 12.1914 22.5219 12.5105 22.1886 12.7456C21.8553 12.9807 21.547 13.2326 21.2637 13.5013C20.9971 13.7531 20.7721 14.0722 20.5888 14.4584C20.4055 14.8447 20.3138 15.3988 20.3138 16.1209ZM25.2633 18.1108L27.2882 16.3728V19.6474H25.9133C25.6966 19.6474 25.5133 19.597 25.3633 19.4962C25.2134 19.3787 25.105 19.2443 25.0384 19.0932C24.9884 18.9253 24.9717 18.7573 24.9884 18.5894C25.0217 18.4047 25.1134 18.2452 25.2633 18.1108Z" fill="#009657"/>
<path d="M44.3064 17.733V7.02771H46.7561C47.4394 7.02771 47.881 7.12846 48.081 7.32997C48.2977 7.51469 48.4227 7.82536 48.456 8.26196C48.456 9.28631 48.456 10.1343 48.456 10.806C48.456 11.4778 48.456 12.0655 48.456 12.5693C48.456 13.0563 48.456 13.5097 48.456 13.9295C48.4726 14.3325 48.481 14.7859 48.481 15.2897C48.481 15.7767 48.481 16.356 48.481 17.0277C48.481 17.6994 48.481 18.5474 48.481 19.5718H46.1312C45.3813 19.5718 44.8896 19.4374 44.6563 19.1688C44.423 18.8833 44.3064 18.4047 44.3064 17.733ZM46.3812 0.70529C47.0311 0.70529 47.5811 0.93199 48.031 1.38539C48.481 1.83879 48.706 2.39295 48.706 3.04786C48.706 3.68598 48.481 4.23174 48.031 4.68514C47.5811 5.13854 47.0311 5.36524 46.3812 5.36524C45.7479 5.36524 45.1979 5.13854 44.7313 4.68514C44.2814 4.23174 44.0564 3.68598 44.0564 3.04786C44.0564 2.39295 44.2814 1.83879 44.7313 1.38539C45.1979 0.93199 45.7479 0.70529 46.3812 0.70529Z" fill="#009657"/>
<path d="M51.1417 19.6474V1.96474H54.4414C54.7914 1.98153 55.0913 2.09068 55.3413 2.29219C55.5913 2.47691 55.8079 2.71201 55.9912 2.99748C56.1912 3.26616 56.3662 3.56003 56.5162 3.87909C56.6662 4.18136 56.8162 4.45844 56.9662 4.71033L62.2907 13.9798L68.5651 1.96474H70.7899C71.1565 2.06549 71.4565 2.267 71.6898 2.56927C71.9398 2.87154 72.0648 3.21579 72.0648 3.60202V19.6474H68.7651C68.2985 19.6474 67.8985 19.4794 67.5652 19.1436C67.2486 18.8077 67.0902 18.4047 67.0902 17.9345V6.12091L61.1908 17.4055H59.5159C59.166 17.4055 58.866 17.3132 58.616 17.1285C58.3827 16.9437 58.166 16.717 57.9661 16.4484C57.7827 16.1629 57.6161 15.8606 57.4661 15.5416C57.3161 15.2225 57.1661 14.9286 57.0162 14.6599L51.8416 5.89421V19.6474H51.1417Z" fill="#009657"/>
<path d="M78.4181 9.26952C78.4681 9.72292 78.4348 10.1175 78.3181 10.4534C78.2181 10.7893 78.0515 11.0747 77.8182 11.3098C77.6015 11.5281 77.3432 11.6961 77.0432 11.8136C76.7433 11.9312 76.4433 11.9899 76.1433 11.9899C75.66 11.9899 75.2184 11.8472 74.8185 11.5617C74.4352 11.2594 74.2185 10.8144 74.1685 10.2267C74.1185 9.57179 74.2602 9.01763 74.5935 8.56423C74.9268 8.11083 75.3601 7.74979 75.8934 7.48111C76.4266 7.19563 77.0016 6.99412 77.6182 6.87657C78.2515 6.74223 78.8264 6.67506 79.343 6.67506C80.043 6.67506 80.7262 6.73384 81.3929 6.85139C82.0595 6.96893 82.6511 7.17884 83.1677 7.48111C83.6843 7.78338 84.0926 8.19479 84.3926 8.71537C84.7092 9.23594 84.8675 9.89924 84.8675 10.7053V19.6474H81.6928C81.4929 19.6474 81.2762 19.513 81.0429 19.2443C80.8262 18.9589 80.7013 18.6482 80.6679 18.3123C80.4513 18.8329 80.018 19.2443 79.368 19.5466C78.7181 19.8489 78.0182 20 77.2682 20C76.7683 20 76.285 19.9244 75.8184 19.7733C75.3517 19.639 74.9351 19.4207 74.5685 19.1184C74.2185 18.7993 73.9519 18.3963 73.7685 17.9093C73.5686 17.4223 73.5019 16.843 73.5686 16.1713C73.7019 14.9286 74.2268 14.047 75.1434 13.5264C76.0767 13.0059 77.2849 12.7456 78.7681 12.7456H80.6429C80.6429 12.712 80.6429 12.5945 80.6429 12.3929C80.6429 12.1746 80.6429 11.9395 80.6429 11.6877C80.6596 11.4358 80.6679 11.2007 80.6679 10.9824C80.6679 10.7641 80.6679 10.6381 80.6679 10.6045C80.6846 10.2519 80.6763 9.88245 80.6429 9.49622C80.6096 9.0932 80.5263 8.72376 80.3929 8.38791C80.2596 8.05206 80.0596 7.77498 79.793 7.55668C79.543 7.33837 79.1931 7.22922 78.7431 7.22922C78.5598 7.22922 78.4181 7.23762 78.3181 7.25441C77.8015 7.32158 77.4182 7.47271 77.1682 7.70781C76.9183 7.94291 76.7849 8.1864 76.7683 8.43829C76.7683 8.67338 76.8599 8.89169 77.0432 9.0932C77.2266 9.27792 77.4932 9.37028 77.8432 9.37028C78.0432 9.37028 78.2348 9.33669 78.4181 9.26952ZM80.6679 17.4307L80.6429 13.3249C79.693 13.3249 78.9764 13.5936 78.4931 14.131C78.0265 14.6516 77.7765 15.2477 77.7432 15.9194C77.6765 16.7086 77.8015 17.372 78.1182 17.9093C78.4515 18.4299 78.8348 18.6902 79.268 18.6902C79.5014 18.6902 79.7347 18.5894 79.968 18.3879C80.218 18.1864 80.4513 17.8673 80.6679 17.4307Z" fill="#009657"/>
<path d="M86.8806 17.8589V0H89.3304C90.0137 0 90.4637 0.100756 90.6803 0.302268C90.897 0.486986 91.0219 0.797649 91.0553 1.23426V8.6398V8.61461V19.6977H88.7055C87.9556 19.6977 87.4639 19.5634 87.2306 19.2947C86.9973 19.0092 86.8806 18.5306 86.8806 17.8589Z" fill="#009657"/>
<path d="M93.3254 17.8589V0H95.7752C96.4584 0 96.9084 0.100756 97.125 0.302268C97.3417 0.486986 97.4667 0.797649 97.5 1.23426V8.6398V8.61461V19.6977H95.1502C94.4003 19.6977 93.9087 19.5634 93.6753 19.2947C93.442 19.0092 93.3254 18.5306 93.3254 17.8589Z" fill="#009657"/>
</g>
</svg>
