<svg width="24" height="25" viewBox="0 0 24 25" fill="none" xmlns="http://www.w3.org/2000/svg">
<g id="tabler:shoe">
<g id="Group">
<path id="Vector" d="M10 13.5L9 11.5M20 6.5H14.574C14.3994 6.50012 14.2278 6.54598 14.0764 6.633C13.925 6.72002 13.799 6.84517 13.711 6.996L12.647 8.819C12.4426 9.16957 12.1691 9.47502 11.8432 9.71686C11.5173 9.9587 11.1458 10.1319 10.751 10.226L6.074 11.34C5.19882 11.5483 4.4194 12.0455 3.86163 12.7513C3.30385 13.4571 3.0003 14.3304 3 15.23V17.5C3 17.7652 3.10536 18.0196 3.29289 18.2071C3.48043 18.3946 3.73478 18.5 4 18.5H20C20.2652 18.5 20.5196 18.3946 20.7071 18.2071C20.8946 18.0196 21 17.7652 21 17.5V7.5C21 7.23478 20.8946 6.98043 20.7071 6.79289C20.5196 6.60536 20.2652 6.5 20 6.5Z" stroke="#4E4E4E" stroke-width="1.5" stroke-linecap="round" stroke-linejoin="round"/>
<path id="Vector_2" d="M16 18.5V17.5C16 16.4391 16.4214 15.4217 17.1716 14.6716C17.9217 13.9214 18.9391 13.5 20 13.5H21M14 12.5L12.5 9.5" stroke="#4E4E4E" stroke-width="1.5" stroke-linecap="round" stroke-linejoin="round"/>
</g>
</g>
</svg>
