<svg width="20" height="21" viewBox="0 0 20 21" fill="none" xmlns="http://www.w3.org/2000/svg">
<g id="u:backpack">
<path id="Vector" d="M10.8334 8.83341H9.16669C8.94567 8.83341 8.73371 8.92121 8.57743 9.07749C8.42115 9.23377 8.33335 9.44573 8.33335 9.66675C8.33335 9.88776 8.42115 10.0997 8.57743 10.256C8.73371 10.4123 8.94567 10.5001 9.16669 10.5001H10.8334C11.0544 10.5001 11.2663 10.4123 11.4226 10.256C11.5789 10.0997 11.6667 9.88776 11.6667 9.66675C11.6667 9.44573 11.5789 9.23377 11.4226 9.07749C11.2663 8.92121 11.0544 8.83341 10.8334 8.83341ZM15 8.83341C14.9976 8.09628 14.751 7.38074 14.2986 6.79871C13.8463 6.21669 13.2137 5.80103 12.5 5.61675V4.66675C12.5 4.00371 12.2366 3.36782 11.7678 2.89898C11.2989 2.43014 10.6631 2.16675 10 2.16675C9.33698 2.16675 8.70109 2.43014 8.23225 2.89898C7.76341 3.36782 7.50002 4.00371 7.50002 4.66675V5.61675C6.78629 5.80103 6.15378 6.21669 5.70143 6.79871C5.24908 7.38074 5.00241 8.09628 5.00002 8.83341C4.11597 8.83341 3.26812 9.1846 2.643 9.80973C2.01788 10.4348 1.66669 11.2827 1.66669 12.1667V14.6667C1.66669 15.3298 1.93008 15.9657 2.39892 16.4345C2.86776 16.9034 3.50365 17.1667 4.16669 17.1667H5.15002C5.32195 17.653 5.64008 18.0742 6.0608 18.3726C6.48152 18.671 6.98423 18.832 7.50002 18.8334H12.5C13.0158 18.832 13.5185 18.671 13.9392 18.3726C14.36 18.0742 14.6781 17.653 14.85 17.1667H15.8334C16.4964 17.1667 17.1323 16.9034 17.6011 16.4345C18.07 15.9657 18.3334 15.3298 18.3334 14.6667V12.1667C18.3334 11.2827 17.9822 10.4348 17.357 9.80973C16.7319 9.1846 15.8841 8.83341 15 8.83341ZM5.00002 15.5001H4.16669C3.94567 15.5001 3.73371 15.4123 3.57743 15.256C3.42115 15.0997 3.33335 14.8878 3.33335 14.6667V12.1667C3.33335 11.7247 3.50895 11.3008 3.82151 10.9882C4.13407 10.6757 4.55799 10.5001 5.00002 10.5001V15.5001ZM9.16669 4.66675C9.16669 4.44573 9.25448 4.23377 9.41076 4.07749C9.56705 3.92121 9.77901 3.83341 10 3.83341C10.221 3.83341 10.433 3.92121 10.5893 4.07749C10.7456 4.23377 10.8334 4.44573 10.8334 4.66675V5.50008H9.16669V4.66675ZM13.3334 16.3334C13.3334 16.5544 13.2456 16.7664 13.0893 16.9227C12.933 17.079 12.721 17.1667 12.5 17.1667H7.50002C7.27901 17.1667 7.06705 17.079 6.91076 16.9227C6.75448 16.7664 6.66669 16.5544 6.66669 16.3334V15.5001C6.66669 15.0581 6.84228 14.6341 7.15484 14.3216C7.4674 14.009 7.89133 13.8334 8.33335 13.8334H11.6667C12.1087 13.8334 12.5326 14.009 12.8452 14.3216C13.1578 14.6341 13.3334 15.0581 13.3334 15.5001V16.3334ZM13.3334 12.6334C12.83 12.3305 12.2542 12.1692 11.6667 12.1667H8.33335C7.74589 12.1692 7.17001 12.3305 6.66669 12.6334V8.83341C6.66669 8.39139 6.84228 7.96746 7.15484 7.6549C7.4674 7.34234 7.89133 7.16675 8.33335 7.16675H11.6667C12.1087 7.16675 12.5326 7.34234 12.8452 7.6549C13.1578 7.96746 13.3334 8.39139 13.3334 8.83341V12.6334ZM16.6667 14.6667C16.6667 14.8878 16.5789 15.0997 16.4226 15.256C16.2663 15.4123 16.0544 15.5001 15.8334 15.5001H15V10.5001C15.442 10.5001 15.866 10.6757 16.1785 10.9882C16.4911 11.3008 16.6667 11.7247 16.6667 12.1667V14.6667Z" fill="#4E4E4E"/>
</g>
</svg>
