<svg width="20" height="21" viewBox="0 0 20 21" fill="none" xmlns="http://www.w3.org/2000/svg">
<g id="u:fire">
<path id="Vector" d="M7.0565 7.4955L7.05463 7.49702L7.05284 7.49876L7.0565 7.4955ZM15.3516 7.34006C15.2936 7.28418 15.2293 7.23529 15.1599 7.19438C15.0617 7.1366 14.9528 7.09957 14.8397 7.08558C14.7266 7.0716 14.6119 7.08095 14.5026 7.11306C14.3933 7.14517 14.2918 7.19936 14.2042 7.27228C14.1167 7.3452 14.0451 7.43529 13.9938 7.537C13.7067 8.10257 13.3108 8.60591 12.8288 9.01812C12.9025 8.60279 12.9396 8.18179 12.9398 7.75997C12.9414 6.47673 12.6029 5.21598 11.9587 4.10611C11.3146 2.99624 10.3878 2.07688 9.27284 1.44164C9.15002 1.37201 9.01151 1.33473 8.87033 1.3333C8.72915 1.33186 8.58992 1.36631 8.4657 1.43343C8.34148 1.50054 8.23635 1.59811 8.16016 1.71698C8.08398 1.83586 8.03925 1.97214 8.03017 2.11303C7.98353 2.90318 7.77697 3.67563 7.42299 4.38359C7.06902 5.09155 6.57499 5.72027 5.97086 6.23167L5.7788 6.38792C5.14706 6.81299 4.58788 7.337 4.12272 7.93983C3.39965 8.85075 2.89876 9.91762 2.65976 11.0558C2.42077 12.194 2.45026 13.3722 2.74588 14.4971C3.0415 15.6219 3.59513 16.6624 4.36286 17.536C5.13059 18.4096 6.0913 19.0923 7.16881 19.53C7.29532 19.5817 7.43262 19.6015 7.56858 19.5876C7.70454 19.5737 7.83499 19.5265 7.94842 19.4503C8.06185 19.374 8.15478 19.2711 8.219 19.1504C8.28323 19.0298 8.31678 18.8952 8.31669 18.7585C8.3161 18.6701 8.3021 18.5823 8.27519 18.4981C8.08875 17.7973 8.03507 17.0678 8.1169 16.3472C8.90543 17.8345 10.1712 19.0134 11.7107 19.6944C11.8986 19.7785 12.111 19.7898 12.3068 19.7261C13.5231 19.3336 14.6188 18.6365 15.4898 17.7012C16.3608 16.7659 16.9782 15.6234 17.2833 14.3822C17.5884 13.1411 17.5711 11.8425 17.233 10.61C16.8949 9.37744 16.2473 8.25181 15.3516 7.34006ZM12.0976 18.0326C11.3712 17.6645 10.7304 17.1476 10.2169 16.5155C9.70338 15.8834 9.32865 15.1504 9.11705 14.364C9.05243 14.0992 9.00244 13.8311 8.96731 13.5608C8.94351 13.3886 8.86651 13.2283 8.74708 13.102C8.62765 12.9758 8.47177 12.8901 8.30122 12.8568C8.24868 12.8465 8.19525 12.8413 8.14169 12.8414C7.99523 12.8413 7.85134 12.8799 7.72453 12.9532C7.59773 13.0265 7.4925 13.1319 7.41944 13.2589C6.728 14.4515 6.38027 15.8122 6.4148 17.1903C5.80667 16.7175 5.29843 16.1287 4.91953 15.458C4.54064 14.7873 4.29863 14.0481 4.20753 13.2832C4.11643 12.5183 4.17805 11.7429 4.38882 11.0019C4.59959 10.261 4.95532 9.5693 5.43539 8.96687C5.7999 8.4934 6.23963 8.08295 6.73706 7.75187C6.7586 7.73797 6.77925 7.72275 6.79891 7.7063C6.79891 7.7063 7.04615 7.50173 7.0546 7.49705C8.24185 6.49285 9.08627 5.14331 9.47022 3.63647C10.3782 4.47583 10.9836 5.5915 11.1925 6.81023C11.4014 8.02896 11.202 9.28257 10.6254 10.3764C10.5492 10.5223 10.518 10.6876 10.5356 10.8513C10.5532 11.015 10.6189 11.1698 10.7244 11.2962C10.8299 11.4226 10.9705 11.5149 11.1284 11.5615C11.2863 11.6081 11.4545 11.6069 11.6117 11.5581C12.8882 11.1579 14.0115 10.3763 14.8303 9.31847C15.3225 10.0454 15.6442 10.874 15.7716 11.7425C15.899 12.6111 15.8287 13.4971 15.566 14.3348C15.3033 15.1724 14.855 15.9399 14.2545 16.5802C13.654 17.2204 12.9167 17.7169 12.0976 18.0326L12.0976 18.0326Z" fill="#4E4E4E"/>
</g>
</svg>
