<svg width="20" height="21" viewBox="0 0 20 21" fill="none" xmlns="http://www.w3.org/2000/svg">
<g id="u:question-circle">
<path id="Vector" d="M9.4083 13.2417C9.37246 13.2813 9.33906 13.3231 9.3083 13.3667C9.27676 13.4132 9.25154 13.4636 9.2333 13.5167C9.20927 13.564 9.19242 13.6145 9.1833 13.6667C9.17921 13.7222 9.17921 13.7779 9.1833 13.8334C9.18048 13.9427 9.20331 14.0512 9.24996 14.1501C9.28739 14.2535 9.3471 14.3474 9.42487 14.4252C9.50263 14.5029 9.59655 14.5627 9.69996 14.6001C9.79971 14.6442 9.90757 14.6669 10.0166 14.6669C10.1257 14.6669 10.2335 14.6442 10.3333 14.6001C10.4367 14.5627 10.5306 14.5029 10.6084 14.4252C10.6862 14.3474 10.7459 14.2535 10.7833 14.1501C10.8203 14.0488 10.8373 13.9412 10.8333 13.8334C10.8339 13.7237 10.8129 13.615 10.7714 13.5135C10.73 13.412 10.6689 13.3196 10.5916 13.2417C10.5142 13.1636 10.422 13.1016 10.3204 13.0593C10.2189 13.017 10.11 12.9952 9.99996 12.9952C9.88995 12.9952 9.78103 13.017 9.67948 13.0593C9.57793 13.1016 9.48577 13.1636 9.4083 13.2417ZM9.99996 2.16675C8.35179 2.16675 6.74062 2.65549 5.37021 3.57117C3.9998 4.48685 2.9317 5.78834 2.30097 7.31105C1.67024 8.83377 1.50521 10.5093 1.82675 12.1258C2.1483 13.7423 2.94197 15.2272 4.10741 16.3926C5.27284 17.5581 6.7577 18.3517 8.37421 18.6733C9.99072 18.9948 11.6663 18.8298 13.189 18.1991C14.7117 17.5683 16.0132 16.5002 16.9289 15.1298C17.8446 13.7594 18.3333 12.1483 18.3333 10.5001C18.3333 9.40573 18.1177 8.3221 17.699 7.31105C17.2802 6.30001 16.6663 5.38135 15.8925 4.60752C15.1187 3.8337 14.2 3.21987 13.189 2.80109C12.1779 2.3823 11.0943 2.16675 9.99996 2.16675ZM9.99996 17.1667C8.68142 17.1667 7.39249 16.7758 6.29616 16.0432C5.19983 15.3107 4.34535 14.2695 3.84077 13.0513C3.33618 11.8331 3.20416 10.4927 3.46139 9.19948C3.71863 7.90627 4.35357 6.71839 5.28592 5.78604C6.21827 4.85369 7.40615 4.21875 8.69936 3.96151C9.99257 3.70428 11.333 3.8363 12.5512 4.34088C13.7694 4.84547 14.8105 5.69995 15.5431 6.79628C16.2756 7.89261 16.6666 9.18154 16.6666 10.5001C16.6666 12.2682 15.9643 13.9639 14.714 15.2141C13.4638 16.4644 11.7681 17.1667 9.99996 17.1667ZM9.99996 6.33342C9.56085 6.33313 9.12941 6.44852 8.74905 6.66795C8.3687 6.88739 8.05285 7.20313 7.8333 7.58342C7.773 7.67826 7.73252 7.78433 7.71427 7.89523C7.69603 8.00613 7.70041 8.11957 7.72715 8.22874C7.75389 8.3379 7.80244 8.44053 7.86987 8.53044C7.9373 8.62036 8.02222 8.69571 8.11952 8.75195C8.21683 8.8082 8.3245 8.84418 8.43607 8.85773C8.54764 8.87128 8.6608 8.86213 8.76874 8.83081C8.87668 8.7995 8.97717 8.74667 9.06417 8.67551C9.15116 8.60436 9.22287 8.51634 9.27496 8.41675C9.34838 8.28958 9.4541 8.18407 9.58142 8.1109C9.70873 8.03773 9.85312 7.9995 9.99996 8.00008C10.221 8.00008 10.4329 8.08788 10.5892 8.24416C10.7455 8.40044 10.8333 8.6124 10.8333 8.83342C10.8333 9.05443 10.7455 9.26639 10.5892 9.42267C10.4329 9.57895 10.221 9.66675 9.99996 9.66675C9.77895 9.66675 9.56699 9.75455 9.41071 9.91083C9.25443 10.0671 9.16663 10.2791 9.16663 10.5001V11.3334C9.16663 11.5544 9.25443 11.7664 9.41071 11.9227C9.56699 12.079 9.77895 12.1667 9.99996 12.1667C10.221 12.1667 10.4329 12.079 10.5892 11.9227C10.7455 11.7664 10.8333 11.5544 10.8333 11.3334V11.1834C11.3844 10.9834 11.8478 10.5961 12.1423 10.0891C12.4368 9.58217 12.5437 8.98782 12.4445 8.40999C12.3452 7.83216 12.046 7.3076 11.5991 6.92801C11.1523 6.54843 10.5862 6.33796 9.99996 6.33342Z" fill="#4E4E4E"/>
</g>
</svg>
