<svg width="26" height="24" viewBox="0 0 26 24" fill="none" xmlns="http://www.w3.org/2000/svg">
<g id="u:sort-amount-down">
<path id="Vector" d="M6.81416 14.29L6.5 14.59V7C6.5 6.73478 6.38586 6.48043 6.1827 6.29289C5.97953 6.10536 5.70398 6 5.41666 6C5.12935 6 4.8538 6.10536 4.65063 6.29289C4.44747 6.48043 4.33333 6.73478 4.33333 7V14.59L4.01916 14.29C3.81517 14.1017 3.53849 13.9959 3.25 13.9959C2.9615 13.9959 2.68483 14.1017 2.48083 14.29C2.27683 14.4783 2.16223 14.7337 2.16223 15C2.16223 15.2663 2.27683 15.5217 2.48083 15.71L4.6475 17.71C4.75053 17.801 4.87202 17.8724 5.005 17.92C5.13467 17.9729 5.27489 18.0002 5.41666 18.0002C5.55844 18.0002 5.69866 17.9729 5.82833 17.92C5.96131 17.8724 6.0828 17.801 6.18583 17.71L8.3525 15.71C8.45351 15.6168 8.53363 15.5061 8.5883 15.3842C8.64296 15.2624 8.6711 15.1319 8.6711 15C8.6711 14.8681 8.64296 14.7376 8.5883 14.6158C8.53363 14.4939 8.45351 14.3832 8.3525 14.29C8.25149 14.1968 8.13157 14.1228 7.9996 14.0723C7.86763 14.0219 7.72618 13.9959 7.58333 13.9959C7.44048 13.9959 7.29904 14.0219 7.16706 14.0723C7.03509 14.1228 6.91517 14.1968 6.81416 14.29ZM11.9167 8H22.75C23.0373 8 23.3129 7.89464 23.516 7.70711C23.7192 7.51957 23.8333 7.26522 23.8333 7C23.8333 6.73478 23.7192 6.48043 23.516 6.29289C23.3129 6.10536 23.0373 6 22.75 6H11.9167C11.6293 6 11.3538 6.10536 11.1506 6.29289C10.9475 6.48043 10.8333 6.73478 10.8333 7C10.8333 7.26522 10.9475 7.51957 11.1506 7.70711C11.3538 7.89464 11.6293 8 11.9167 8ZM22.75 11H14.0833C13.796 11 13.5205 11.1054 13.3173 11.2929C13.1141 11.4804 13 11.7348 13 12C13 12.2652 13.1141 12.5196 13.3173 12.7071C13.5205 12.8946 13.796 13 14.0833 13H22.75C23.0373 13 23.3129 12.8946 23.516 12.7071C23.7192 12.5196 23.8333 12.2652 23.8333 12C23.8333 11.7348 23.7192 11.4804 23.516 11.2929C23.3129 11.1054 23.0373 11 22.75 11ZM22.75 16H17.3333C17.046 16 16.7705 16.1054 16.5673 16.2929C16.3641 16.4804 16.25 16.7348 16.25 17C16.25 17.2652 16.3641 17.5196 16.5673 17.7071C16.7705 17.8946 17.046 18 17.3333 18H22.75C23.0373 18 23.3129 17.8946 23.516 17.7071C23.7192 17.5196 23.8333 17.2652 23.8333 17C23.8333 16.7348 23.7192 16.4804 23.516 16.2929C23.3129 16.1054 23.0373 16 22.75 16Z" fill="#4E4E4E"/>
</g>
</svg>
