<svg width="16" height="13" viewBox="0 0 16 13" fill="none" xmlns="http://www.w3.org/2000/svg">
<g id="&#216;&#170;&#217;&#136;&#217;&#133;&#216;&#167;&#217;&#134;">
<path d="M3.74494 0L4.54977 0.76555L3.74494 1.5311L2.94011 0.76555L3.74494 0ZM3.81033 5.29187C4.33683 5.29187 4.74763 5.21053 5.04273 5.04785C5.33783 4.88517 5.54575 4.66826 5.66647 4.39713C5.7872 4.12919 5.84756 3.83573 5.84756 3.51675C5.84756 3.15311 5.79223 2.78788 5.68156 2.42105C5.5709 2.05104 5.45688 1.72727 5.33951 1.44976L6.41094 1.05263C6.58196 1.49282 6.70772 1.91069 6.7882 2.30622C6.86868 2.70175 6.90893 3.08931 6.90893 3.4689C6.90893 4.04944 6.79659 4.55662 6.5719 4.99043C6.34722 5.42743 6.00517 5.76714 5.54575 6.00957C5.08968 6.25199 4.51121 6.37321 3.81033 6.37321C3.08599 6.37321 2.49913 6.24402 2.04977 5.98565C1.60376 5.73046 1.2768 5.38596 1.06889 4.95215C0.860972 4.51834 0.757015 4.03668 0.757015 3.50718C0.757015 3.14992 0.795579 2.78309 0.872709 2.4067C0.953192 2.02711 1.06553 1.65391 1.20973 1.28708L2.19565 1.6555C2.08834 1.9681 1.99612 2.2823 1.91899 2.59809C1.84521 2.91388 1.80832 3.21372 1.80832 3.49761C1.80832 3.82616 1.86868 4.126 1.98941 4.39713C2.11349 4.66826 2.3214 4.88517 2.61315 5.04785C2.9049 5.21053 3.30396 5.29187 3.81033 5.29187Z" fill="#4E4E4E"/>
<path d="M0.0175781 5.69378H1.08901V10.1818C1.08901 10.5805 1.15943 10.8565 1.30027 11.0096C1.44447 11.1627 1.6876 11.2392 2.02965 11.2392H2.15541V12.3349H2.02965C1.34219 12.3349 0.834144 12.1627 0.505506 11.8182C0.180221 11.4737 0.0175781 10.9442 0.0175781 10.2297V5.69378Z" fill="#4E4E4E"/>
<path d="M5.48035 12.445C5.1383 12.445 4.8214 12.3748 4.52965 12.2344C4.2379 12.0941 3.9428 11.8995 3.64434 11.6507C3.43978 11.8581 3.23689 12.0239 3.03569 12.1483C2.83783 12.2727 2.55279 12.3349 2.18056 12.3349H1.95923V11.2392H2.15541C2.35326 11.2392 2.52429 11.1786 2.66848 11.0574C2.81604 10.933 2.95017 10.7751 3.0709 10.5837C3.19162 10.3892 3.31402 10.1834 3.4381 9.96651C3.56553 9.7496 3.70805 9.54545 3.86567 9.35407C4.02328 9.15949 4.2094 9.00159 4.42402 8.88038C4.64199 8.75598 4.90356 8.69378 5.20872 8.69378C5.60443 8.69378 5.94649 8.78309 6.23488 8.96172C6.52663 9.14035 6.75131 9.37959 6.90893 9.67943C7.06989 9.97608 7.15038 10.303 7.15038 10.6603C7.15038 11.1994 7.00785 11.6316 6.72281 11.9569C6.43777 12.2823 6.02361 12.445 5.48035 12.445ZM5.23891 9.74641C5.08465 9.74641 4.9438 9.79585 4.81637 9.89474C4.69229 9.99362 4.57995 10.118 4.47935 10.2679C4.3821 10.4147 4.29659 10.563 4.22281 10.7129C4.32677 10.8118 4.42737 10.8979 4.52462 10.9713C4.62187 11.0415 4.71577 11.1037 4.80631 11.1579C5.05782 11.3014 5.2825 11.3732 5.48035 11.3732C5.69833 11.3732 5.85762 11.3126 5.95822 11.1914C6.06218 11.0702 6.11416 10.9091 6.11416 10.7081C6.11416 10.4338 6.03703 10.2057 5.88277 10.0239C5.72851 9.83891 5.51389 9.74641 5.23891 9.74641Z" fill="#4E4E4E"/>
<path d="M9.74595 6.7177C10.1282 6.7177 10.4636 6.82616 10.752 7.04306C11.0404 7.25997 11.2667 7.563 11.4311 7.95215C11.5987 8.34131 11.6926 8.79745 11.7127 9.32057H12.2208V10.4163H11.6222C11.525 10.8341 11.3506 11.2153 11.0991 11.5598C10.8509 11.9043 10.5038 12.1994 10.0578 12.445C9.61181 12.6906 9.04675 12.8756 8.36265 13L7.97533 12.0144C8.67955 11.8836 9.26137 11.6842 9.7208 11.4163C10.1802 11.1515 10.472 10.8182 10.596 10.4163H9.94213C9.28485 10.4163 8.79021 10.2887 8.45822 10.0335C8.12623 9.77831 7.96023 9.38118 7.96023 8.8421C7.96023 8.60606 7.99712 8.36364 8.0709 8.11483C8.14803 7.86603 8.26204 7.63636 8.41295 7.42584C8.56386 7.21531 8.74997 7.04466 8.9713 6.91388C9.19598 6.78309 9.4542 6.7177 9.74595 6.7177ZM9.91194 9.32057H10.6916C10.6581 8.85805 10.5659 8.48963 10.415 8.21531C10.2674 7.9378 10.0411 7.79904 9.73589 7.79904C9.54474 7.79904 9.39384 7.85646 9.28317 7.97129C9.17586 8.08612 9.10041 8.22169 9.05681 8.37799C9.01322 8.5311 8.99142 8.67145 8.99142 8.79904C8.99142 9 9.06855 9.13716 9.22281 9.21053C9.37707 9.28389 9.60678 9.32057 9.91194 9.32057Z" fill="#4E4E4E"/>
<path d="M14.2429 4.54545L15.0176 5.27751L14.2429 6.01914L13.4783 5.27751L14.2429 4.54545ZM12.5628 4.54545L13.3375 5.27751L12.5628 6.01914L11.7932 5.27751L12.5628 4.54545ZM13.0558 10.4163H12.0246V9.32057H13.0558C13.3543 9.32057 13.5571 9.23604 13.6645 9.06699C13.7751 8.89793 13.8305 8.68262 13.8305 8.42105C13.8305 8.21053 13.807 7.98246 13.76 7.73684C13.7131 7.48804 13.6645 7.24242 13.6142 7L14.6806 6.74163C14.7409 7.01914 14.7879 7.29027 14.8214 7.55502C14.8583 7.81978 14.8767 8.07496 14.8767 8.32057C14.8767 8.72249 14.8197 9.08134 14.7057 9.39713C14.5917 9.71292 14.4005 9.96172 14.1323 10.1435C13.8673 10.3254 13.5085 10.4163 13.0558 10.4163Z" fill="#4E4E4E"/>
</g>
</svg>
