<svg width="32" height="32" viewBox="0 0 32 32" fill="none" xmlns="http://www.w3.org/2000/svg">
<path d="M24.448 24.452H20.8947V18.8827C20.8947 17.5547 20.868 15.8453 19.0413 15.8453C17.1893 15.8453 16.9067 17.2907 16.9067 18.7853V24.452H13.352V13H16.7653V14.56H16.812C17.2893 13.6613 18.4493 12.7107 20.1827 12.7107C23.7827 12.7107 24.4493 15.0813 24.4493 18.1653L24.448 24.452ZM9.33867 11.4333C9.06741 11.4337 8.79875 11.3805 8.54808 11.2768C8.29742 11.1731 8.06969 11.021 7.87794 10.8291C7.6862 10.6372 7.5342 10.4094 7.43068 10.1587C7.32716 9.90795 7.27414 9.63926 7.27467 9.368C7.27493 8.95978 7.39624 8.5608 7.62325 8.22153C7.85027 7.88225 8.17279 7.61791 8.55004 7.46194C8.92729 7.30596 9.34232 7.26536 9.74264 7.34525C10.143 7.42515 10.5106 7.62197 10.7991 7.91081C11.0875 8.19965 11.2839 8.56755 11.3633 8.96798C11.4426 9.3684 11.4015 9.78338 11.245 10.1604C11.0886 10.5375 10.8238 10.8597 10.4843 11.0862C10.1447 11.3128 9.74555 11.4336 9.33733 11.4333H9.33867ZM11.12 24.452H7.556V13H11.12V24.452ZM26.2267 4H5.77333C4.792 4 4 4.77333 4 5.72933V26.2707C4 27.2267 4.792 28 5.77067 28H26.2227C27.2 28 28 27.2267 28 26.2707V5.72933C28 4.77467 27.2 4 26.2213 4H26.2267Z" fill="#4E4E4E"/>
</svg>
