<svg width="32" height="32" viewBox="0 0 32 32" fill="none" xmlns="http://www.w3.org/2000/svg">
<path d="M16.0013 29.3334C8.63733 29.3334 2.668 23.3641 2.668 16.0001C2.668 8.63608 8.63733 2.66675 16.0013 2.66675C23.3653 2.66675 29.3347 8.63608 29.3347 16.0001C29.3347 23.3641 23.3653 29.3334 16.0013 29.3334ZM11.8547 17.5601L11.872 17.5507L13.032 21.3774C13.1813 21.7921 13.3867 21.8667 13.636 21.8321C13.8867 21.7987 14.0187 21.6641 14.1827 21.5067L15.7667 19.9761L19.1667 22.4934C19.788 22.8361 20.2347 22.6587 20.3893 21.9174L22.6 11.4881C22.844 10.5174 22.4147 10.1281 21.6627 10.4374L8.68533 15.4507C7.8 15.8054 7.80533 16.3014 8.52533 16.5214L11.8547 17.5601Z" fill="#4E4E4E"/>
</svg>
