<svg width="32" height="32" viewBox="0 0 32 32" fill="none" xmlns="http://www.w3.org/2000/svg">
<path d="M29.616 7.54124C28.5985 7.99137 27.5195 8.28707 26.4147 8.41857C27.5788 7.72142 28.4497 6.62489 28.8653 5.33324C27.772 5.9839 26.5733 6.4399 25.3253 6.68657C24.4862 5.78867 23.3738 5.19319 22.1613 4.99268C20.9487 4.79218 19.7039 4.99789 18.6204 5.57784C17.5368 6.15779 16.6752 7.07948 16.1695 8.19963C15.6638 9.31977 15.5423 10.5756 15.824 11.7719C13.6066 11.661 11.4373 11.0849 9.457 10.0811C7.4767 9.07723 5.72967 7.66813 4.32935 5.94524C3.83373 6.7965 3.57329 7.7642 3.57468 8.74924C3.57468 10.6826 4.56001 12.3906 6.05468 13.3906C5.16937 13.3626 4.30354 13.1236 3.52935 12.6932V12.7612C3.52931 14.0491 3.97473 15.2973 4.79006 16.2941C5.60539 17.291 6.74043 17.9752 8.00268 18.2306C7.18087 18.4535 6.31907 18.4863 5.48268 18.3266C5.83858 19.4351 6.5323 20.4045 7.46668 21.0991C8.40106 21.7937 9.52929 22.1786 10.6933 22.1999C9.53649 23.1085 8.21186 23.7801 6.79522 24.1764C5.37859 24.5727 3.89773 24.6858 2.43735 24.5092C4.98631 26.1484 7.95349 27.0187 10.984 27.0159C21.2427 27.0159 26.8507 18.5186 26.8507 11.1492C26.8507 10.9092 26.8453 10.6666 26.8347 10.4279C27.9259 9.63905 28.8677 8.66065 29.616 7.54124Z" fill="#4E4E4E"/>
</svg>
