<svg width="32" height="32" viewBox="0 0 32 32" fill="none" xmlns="http://www.w3.org/2000/svg">
<path d="M16 28C18.6172 27.9994 21.1625 27.1432 23.248 25.5618C25.3335 23.9804 26.8447 21.7606 27.5515 19.2406C28.2583 16.7205 28.1218 14.0386 27.1629 11.6033C26.2039 9.16808 24.4751 7.11311 22.2399 5.75159C20.0047 4.39006 17.3856 3.79663 14.7818 4.06173C12.1781 4.32683 9.73234 5.43593 7.81739 7.22001C5.90243 9.00408 4.62326 11.3653 4.1748 13.9438C3.72634 16.5224 4.13319 19.1768 5.33334 21.5027L4.00001 28L10.4973 26.6667C12.1453 27.5187 14.0173 28 16 28Z" stroke="#4E4E4E" stroke-width="2" stroke-linecap="round" stroke-linejoin="round"/>
<path d="M10 16H10.0133V16.0133H10V16ZM16 16H16.0133V16.0133H16V16ZM22 16H22.0133V16.0133H22V16Z" stroke="#4E4E4E" stroke-width="2.25" stroke-linejoin="round"/>
</svg>
